<mxfile host="drawio-plugin" modified="2023-01-08T17:26:57.810Z" agent="5.0 (X11; Linux x86_64) AppleWebKit/537.36 (KHTML, like Gecko) Chrome/97.0.4692.45 Safari/537.36" etag="83KkOub7zGPrLitkuI40" version="15.5.4" type="embed"><diagram id="C5RBs43oDa-KdzZeNtuy" name="Page-1"><mxGraphModel dx="3930" dy="761" grid="1" gridSize="10" guides="1" tooltips="1" connect="1" arrows="1" fold="1" page="1" pageScale="1" pageWidth="827" pageHeight="1169" math="0" shadow="0"><root><mxCell id="WIyWlLk6GJQsqaUBKTNV-0"/><mxCell id="WIyWlLk6GJQsqaUBKTNV-1" parent="WIyWlLk6GJQsqaUBKTNV-0"/><mxCell id="528" value="Types" style="verticalAlign=top;align=left;spacingTop=8;spacingLeft=2;spacingRight=12;shape=cube;size=10;direction=south;fontStyle=4;html=1;" vertex="1" parent="WIyWlLk6GJQsqaUBKTNV-1"><mxGeometry x="-290" y="2450" width="1460" height="570" as="geometry"/></mxCell><mxCell id="469" value="RatingHundler" style="verticalAlign=top;align=left;spacingTop=8;spacingLeft=2;spacingRight=12;shape=cube;size=10;direction=south;fontStyle=4;html=1;" vertex="1" parent="WIyWlLk6GJQsqaUBKTNV-1"><mxGeometry x="-1654" y="2460" width="1050" height="530" as="geometry"/></mxCell><mxCell id="457" value="VkDynamicCover" style="verticalAlign=top;align=left;spacingTop=8;spacingLeft=2;spacingRight=12;shape=cube;size=10;direction=south;fontStyle=4;html=1;" vertex="1" parent="WIyWlLk6GJQsqaUBKTNV-1"><mxGeometry x="-1430" y="370" width="890" height="560" as="geometry"/></mxCell><mxCell id="451" value="Text_Formatting" style="verticalAlign=top;align=left;spacingTop=8;spacingLeft=2;spacingRight=12;shape=cube;size=10;direction=south;fontStyle=4;html=1;" vertex="1" parent="WIyWlLk6GJQsqaUBKTNV-1"><mxGeometry x="710" y="490" width="840" height="470" as="geometry"/></mxCell><mxCell id="449" value="Listeners" style="verticalAlign=top;align=left;spacingTop=8;spacingLeft=2;spacingRight=12;shape=cube;size=10;direction=south;fontStyle=4;html=1;" vertex="1" parent="WIyWlLk6GJQsqaUBKTNV-1"><mxGeometry x="-1570" y="1920" width="720" height="410" as="geometry"/></mxCell><mxCell id="422" value="Widgets" style="verticalAlign=top;align=left;spacingTop=8;spacingLeft=2;spacingRight=12;shape=cube;size=10;direction=south;fontStyle=4;html=1;" vertex="1" parent="WIyWlLk6GJQsqaUBKTNV-1"><mxGeometry x="-670" y="1090" width="2290" height="1200" as="geometry"/></mxCell><mxCell id="360" value="Utils" style="verticalAlign=top;align=left;spacingTop=8;spacingLeft=2;spacingRight=12;shape=cube;size=10;direction=south;fontStyle=4;html=1;" vertex="1" parent="WIyWlLk6GJQsqaUBKTNV-1"><mxGeometry x="-1470" y="1092.5" width="530" height="790" as="geometry"/></mxCell><mxCell id="338" value="Builders" style="verticalAlign=top;align=left;spacingTop=8;spacingLeft=2;spacingRight=12;shape=cube;size=10;direction=south;fontStyle=4;html=1;" vertex="1" parent="WIyWlLk6GJQsqaUBKTNV-1"><mxGeometry x="-370" y="449" width="910" height="541" as="geometry"/></mxCell><mxCell id="0" value="DynamicCover" style="swimlane;fontStyle=1;align=center;verticalAlign=top;childLayout=stackLayout;horizontal=1;startSize=26;horizontalStack=0;resizeParent=1;resizeParentMax=0;resizeLast=0;collapsible=1;marginBottom=0;" parent="WIyWlLk6GJQsqaUBKTNV-1" vertex="1"><mxGeometry x="-1130" y="440" width="190" height="148" as="geometry"/></mxCell><mxCell id="1" value="- surface: Image&#10;- vk_session: vk_api: VkApi&#10;- widget_drawing: CoverDrawing&#10;- widgets: List[Widget]" style="text;strokeColor=none;fillColor=none;align=left;verticalAlign=top;spacingLeft=4;spacingRight=4;overflow=hidden;rotatable=0;points=[[0,0.5],[1,0.5]];portConstraint=eastwest;" parent="0" vertex="1"><mxGeometry y="26" width="190" height="74" as="geometry"/></mxCell><mxCell id="2" value="" style="line;strokeWidth=1;fillColor=none;align=left;verticalAlign=middle;spacingTop=-1;spacingLeft=3;spacingRight=3;rotatable=0;labelPosition=right;points=[];portConstraint=eastwest;" parent="0" vertex="1"><mxGeometry y="100" width="190" height="8" as="geometry"/></mxCell><mxCell id="3" value="+ start()&#10;- update()" style="text;strokeColor=none;fillColor=none;align=left;verticalAlign=top;spacingLeft=4;spacingRight=4;overflow=hidden;rotatable=0;points=[[0,0.5],[1,0.5]];portConstraint=eastwest;" parent="0" vertex="1"><mxGeometry y="108" width="190" height="40" as="geometry"/></mxCell><mxCell id="4" value="CoverDrawing" style="swimlane;fontStyle=1;align=center;verticalAlign=top;childLayout=stackLayout;horizontal=1;startSize=30;horizontalStack=0;resizeParent=1;resizeParentMax=0;resizeLast=0;collapsible=1;marginBottom=0;" parent="WIyWlLk6GJQsqaUBKTNV-1" vertex="1"><mxGeometry x="-1150" y="671" width="230" height="184" as="geometry"/></mxCell><mxCell id="7" value="- widget_list: List[Widget]&#10;- show_cycle: List[List[Widget]]&#10;- surface: Image&#10;- group_id: int&#10;- cur_show: int&#10;" style="text;strokeColor=none;fillColor=none;align=left;verticalAlign=top;spacingLeft=4;spacingRight=4;overflow=hidden;rotatable=0;points=[[0,0.5],[1,0.5]];portConstraint=eastwest;" parent="4" vertex="1"><mxGeometry y="30" width="230" height="80" as="geometry"/></mxCell><mxCell id="336" value="" style="line;strokeWidth=1;fillColor=none;align=left;verticalAlign=middle;spacingTop=-1;spacingLeft=3;spacingRight=3;rotatable=0;labelPosition=right;points=[];portConstraint=eastwest;" vertex="1" parent="4"><mxGeometry y="110" width="230" height="8" as="geometry"/></mxCell><mxCell id="335" value="+ update(): void&#10;+ draw(surface: Image): Image&#10;- create_show_cycle(names: List[str])" style="text;strokeColor=none;fillColor=none;align=left;verticalAlign=top;spacingLeft=4;spacingRight=4;overflow=hidden;rotatable=0;points=[[0,0.5],[1,0.5]];portConstraint=eastwest;" vertex="1" parent="4"><mxGeometry y="118" width="230" height="66" as="geometry"/></mxCell><mxCell id="10" value="WidgetCreator" style="swimlane;fontStyle=1;align=center;verticalAlign=top;childLayout=stackLayout;horizontal=1;startSize=26;horizontalStack=0;resizeParent=1;resizeParentMax=0;resizeLast=0;collapsible=1;marginBottom=0;" parent="WIyWlLk6GJQsqaUBKTNV-1" vertex="1"><mxGeometry x="-875" y="450" width="310" height="128" as="geometry"/></mxCell><mxCell id="11" value="- main_config: Dict&#10;- widget_list: List[Dict]" style="text;strokeColor=none;fillColor=none;align=left;verticalAlign=top;spacingLeft=4;spacingRight=4;overflow=hidden;rotatable=0;points=[[0,0.5],[1,0.5]];portConstraint=eastwest;" parent="10" vertex="1"><mxGeometry y="26" width="310" height="44" as="geometry"/></mxCell><mxCell id="12" value="" style="line;strokeWidth=1;fillColor=none;align=left;verticalAlign=middle;spacingTop=-1;spacingLeft=3;spacingRight=3;rotatable=0;labelPosition=right;points=[];portConstraint=eastwest;" parent="10" vertex="1"><mxGeometry y="70" width="310" height="8" as="geometry"/></mxCell><mxCell id="13" value="+ create_widgets(widget_list: List[dict]): List[Widget]&#10;+ create_widget(**kwargs): Widget" style="text;strokeColor=none;fillColor=none;align=left;verticalAlign=top;spacingLeft=4;spacingRight=4;overflow=hidden;rotatable=0;points=[[0,0.5],[1,0.5]];portConstraint=eastwest;" parent="10" vertex="1"><mxGeometry y="78" width="310" height="50" as="geometry"/></mxCell><mxCell id="16" value="&lt;p style=&quot;margin: 0px ; margin-top: 4px ; text-align: center&quot;&gt;&lt;b&gt;&lt;i&gt;Widget&lt;/i&gt;&lt;/b&gt;&lt;/p&gt;&lt;hr size=&quot;1&quot;&gt;&lt;p style=&quot;margin: 0px ; margin-left: 4px&quot;&gt;&lt;span&gt;+ type: str&lt;/span&gt;&lt;br&gt;&lt;/p&gt;&lt;p style=&quot;margin: 0px ; margin-left: 4px&quot;&gt;+ name: str&lt;/p&gt;&lt;hr size=&quot;1&quot;&gt;&lt;p style=&quot;margin: 0px ; margin-left: 4px&quot;&gt;&lt;i&gt;+ draw(surface: Image): Image&lt;/i&gt;&lt;br&gt;+ __str__(): str&lt;/p&gt;" style="verticalAlign=top;align=left;overflow=fill;fontSize=12;fontFamily=Helvetica;html=1;" parent="WIyWlLk6GJQsqaUBKTNV-1" vertex="1"><mxGeometry x="145" y="1182.5" width="190" height="200" as="geometry"/></mxCell><mxCell id="17" value="&lt;p style=&quot;margin: 0px ; margin-top: 4px ; text-align: center&quot;&gt;&lt;b&gt;&lt;i&gt;Picture&lt;/i&gt;&lt;/b&gt;&lt;/p&gt;&lt;hr size=&quot;1&quot;&gt;&lt;p style=&quot;margin: 0px ; margin-left: 4px&quot;&gt;+ resize: List[int, int]&lt;br&gt;&lt;/p&gt;&lt;p style=&quot;margin: 0px ; margin-left: 4px&quot;&gt;+ xy: List[int, int]&lt;/p&gt;&lt;hr size=&quot;1&quot;&gt;&lt;p style=&quot;margin: 0px ; margin-left: 4px&quot;&gt;&lt;i&gt;+ get_image(): Image&lt;/i&gt;&lt;/p&gt;&lt;p style=&quot;margin: 0px ; margin-left: 4px&quot;&gt;+ draw(surface: Image): Image&lt;/p&gt;&amp;nbsp; - get_resized_image(image: Image): Image&lt;p style=&quot;margin: 0px ; margin-left: 4px&quot;&gt;- get_shift(): [int, int]&lt;/p&gt;" style="verticalAlign=top;align=left;overflow=fill;fontSize=12;fontFamily=Helvetica;html=1;" parent="WIyWlLk6GJQsqaUBKTNV-1" vertex="1"><mxGeometry x="-410" y="1501.5" width="250" height="140" as="geometry"/></mxCell><mxCell id="19" value="LocalPicture" style="swimlane;fontStyle=1;align=center;verticalAlign=top;childLayout=stackLayout;horizontal=1;startSize=26;horizontalStack=0;resizeParent=1;resizeParentMax=0;resizeLast=0;collapsible=1;marginBottom=0;" parent="WIyWlLk6GJQsqaUBKTNV-1" vertex="1"><mxGeometry x="-570" y="1882.5" width="160" height="86" as="geometry"/></mxCell><mxCell id="20" value="+ path: str" style="text;strokeColor=none;fillColor=none;align=left;verticalAlign=top;spacingLeft=4;spacingRight=4;overflow=hidden;rotatable=0;points=[[0,0.5],[1,0.5]];portConstraint=eastwest;" parent="19" vertex="1"><mxGeometry y="26" width="160" height="26" as="geometry"/></mxCell><mxCell id="21" value="" style="line;strokeWidth=1;fillColor=none;align=left;verticalAlign=middle;spacingTop=-1;spacingLeft=3;spacingRight=3;rotatable=0;labelPosition=right;points=[];portConstraint=eastwest;" parent="19" vertex="1"><mxGeometry y="52" width="160" height="8" as="geometry"/></mxCell><mxCell id="22" value="+ get_image(): Image" style="text;strokeColor=none;fillColor=none;align=left;verticalAlign=top;spacingLeft=4;spacingRight=4;overflow=hidden;rotatable=0;points=[[0,0.5],[1,0.5]];portConstraint=eastwest;" parent="19" vertex="1"><mxGeometry y="60" width="160" height="26" as="geometry"/></mxCell><mxCell id="23" value="UrlPicture" style="swimlane;fontStyle=1;align=center;verticalAlign=top;childLayout=stackLayout;horizontal=1;startSize=26;horizontalStack=0;resizeParent=1;resizeParentMax=0;resizeLast=0;collapsible=1;marginBottom=0;" parent="WIyWlLk6GJQsqaUBKTNV-1" vertex="1"><mxGeometry x="-127" y="1882.5" width="160" height="86" as="geometry"/></mxCell><mxCell id="24" value="+ url: str" style="text;strokeColor=none;fillColor=none;align=left;verticalAlign=top;spacingLeft=4;spacingRight=4;overflow=hidden;rotatable=0;points=[[0,0.5],[1,0.5]];portConstraint=eastwest;" parent="23" vertex="1"><mxGeometry y="26" width="160" height="26" as="geometry"/></mxCell><mxCell id="25" value="" style="line;strokeWidth=1;fillColor=none;align=left;verticalAlign=middle;spacingTop=-1;spacingLeft=3;spacingRight=3;rotatable=0;labelPosition=right;points=[];portConstraint=eastwest;" parent="23" vertex="1"><mxGeometry y="52" width="160" height="8" as="geometry"/></mxCell><mxCell id="26" value="+ get_image(): Image" style="text;strokeColor=none;fillColor=none;align=left;verticalAlign=top;spacingLeft=4;spacingRight=4;overflow=hidden;rotatable=0;points=[[0,0.5],[1,0.5]];portConstraint=eastwest;" parent="23" vertex="1"><mxGeometry y="60" width="160" height="26" as="geometry"/></mxCell><mxCell id="29" value="RandomLocalPicture" style="swimlane;fontStyle=1;align=center;verticalAlign=top;childLayout=stackLayout;horizontal=1;startSize=26;horizontalStack=0;resizeParent=1;resizeParentMax=0;resizeLast=0;collapsible=1;marginBottom=0;" parent="WIyWlLk6GJQsqaUBKTNV-1" vertex="1"><mxGeometry x="-490" y="2162.5" width="160" height="60" as="geometry"/></mxCell><mxCell id="31" value="" style="line;strokeWidth=1;fillColor=none;align=left;verticalAlign=middle;spacingTop=-1;spacingLeft=3;spacingRight=3;rotatable=0;labelPosition=right;points=[];portConstraint=eastwest;" parent="29" vertex="1"><mxGeometry y="26" width="160" height="8" as="geometry"/></mxCell><mxCell id="32" value="+ get_image(): Image" style="text;strokeColor=none;fillColor=none;align=left;verticalAlign=top;spacingLeft=4;spacingRight=4;overflow=hidden;rotatable=0;points=[[0,0.5],[1,0.5]];portConstraint=eastwest;" parent="29" vertex="1"><mxGeometry y="34" width="160" height="26" as="geometry"/></mxCell><mxCell id="33" value="RandomAlbumPicture" style="swimlane;fontStyle=1;align=center;verticalAlign=top;childLayout=stackLayout;horizontal=1;startSize=26;horizontalStack=0;resizeParent=1;resizeParentMax=0;resizeLast=0;collapsible=1;marginBottom=0;" parent="WIyWlLk6GJQsqaUBKTNV-1" vertex="1"><mxGeometry x="-192" y="2156.5" width="160" height="60" as="geometry"/></mxCell><mxCell id="35" value="" style="line;strokeWidth=1;fillColor=none;align=left;verticalAlign=middle;spacingTop=-1;spacingLeft=3;spacingRight=3;rotatable=0;labelPosition=right;points=[];portConstraint=eastwest;" parent="33" vertex="1"><mxGeometry y="26" width="160" height="8" as="geometry"/></mxCell><mxCell id="36" value="+ get_image(): Image" style="text;strokeColor=none;fillColor=none;align=left;verticalAlign=top;spacingLeft=4;spacingRight=4;overflow=hidden;rotatable=0;points=[[0,0.5],[1,0.5]];portConstraint=eastwest;" parent="33" vertex="1"><mxGeometry y="34" width="160" height="26" as="geometry"/></mxCell><mxCell id="40" value="&lt;p style=&quot;margin: 0px ; margin-top: 4px ; text-align: center&quot;&gt;&lt;b&gt;&lt;i&gt;&amp;lt;&amp;lt;utility&amp;gt;&amp;gt;&lt;/i&gt;&lt;br&gt;DrawingTools&lt;/b&gt;&lt;/p&gt;&lt;hr size=&quot;1&quot;&gt;&lt;p style=&quot;margin: 0px ; margin-left: 4px&quot;&gt;&lt;u&gt;+ create_surface(width: int, height: int): Image&lt;/u&gt;&lt;/p&gt;&lt;p style=&quot;margin: 0px ; margin-left: 4px&quot;&gt;&lt;u&gt;+ clear(surface: Image): void&lt;/u&gt;&lt;/p&gt;&lt;p style=&quot;margin: 0px ; margin-left: 4px&quot;&gt;&lt;u&gt;+ draw_image(surface: Image, img: Image, shift: Tuple[int, int]): Image&lt;/u&gt;&lt;/p&gt;&lt;p style=&quot;margin: 0px ; margin-left: 4px&quot;&gt;&lt;u&gt;+ draw_text(surface: Image, text: str, font_name: str, font_size: int, **kwargs): void&lt;/u&gt;&lt;/p&gt;&lt;p style=&quot;margin: 0px ; margin-left: 4px&quot;&gt;&lt;u&gt;+ get_text_size(text: str, font_name: str, font_size: int): tuple&lt;/u&gt;&lt;/p&gt;&lt;p style=&quot;margin: 0px ; margin-left: 4px&quot;&gt;&lt;u&gt;+ get_byte_image(surface: Image): bytes&lt;/u&gt;&lt;/p&gt;&lt;p style=&quot;margin: 0px ; margin-left: 4px&quot;&gt;&lt;u&gt;+ get_image_from_url(url: str): Image&lt;/u&gt;&lt;/p&gt;&lt;p style=&quot;margin: 0px ; margin-left: 4px&quot;&gt;&lt;u&gt;+ get_image_from_path(path: Path): Image&lt;/u&gt;&lt;/p&gt;&lt;p style=&quot;margin: 0px ; margin-left: 4px&quot;&gt;&lt;u&gt;+ get_resized_image(image: Image, resize: Tuple[int, int]): Image&lt;/u&gt;&lt;/p&gt;&lt;p style=&quot;margin: 0px ; margin-left: 4px&quot;&gt;&lt;u&gt;+ get_random_image_from_dir(path: Part, rand_func: callable): Image&lt;/u&gt;&lt;/p&gt;" style="verticalAlign=top;align=left;overflow=fill;fontSize=12;fontFamily=Helvetica;html=1;" parent="WIyWlLk6GJQsqaUBKTNV-1" vertex="1"><mxGeometry x="-1450" y="1312.5" width="450" height="210" as="geometry"/></mxCell><mxCell id="44" value="&lt;p style=&quot;margin: 0px ; margin-top: 4px ; text-align: center&quot;&gt;&lt;b&gt;&lt;i&gt;&amp;lt;&amp;lt;utility&amp;gt;&amp;gt;&lt;/i&gt;&lt;br&gt;VkTools&lt;/b&gt;&lt;/p&gt;&lt;hr&gt;&amp;nbsp;- vk_session: VkApi&lt;br&gt;&amp;nbsp;- app_id: str&lt;br&gt;&lt;hr size=&quot;1&quot;&gt;&lt;p style=&quot;margin: 0px ; margin-left: 4px&quot;&gt;&lt;u&gt;+ create_session(token: str) -&amp;gt; VkApi&lt;/u&gt;&lt;/p&gt;&lt;p style=&quot;margin: 0px ; margin-left: 4px&quot;&gt;+ push_cover(surface_bytes: bytes, surface_width: int, surface_height: int, group_id: int): void&lt;/p&gt;&lt;p style=&quot;margin: 0px ; margin-left: 4px&quot;&gt;+ get_random_image_url(group_id: int, album_id: int, rand_func: callable) -&amp;gt; str&lt;/p&gt;&lt;p style=&quot;margin: 0px ; margin-left: 4px&quot;&gt;+ get_group_info(group_id: int, fields: str) -&amp;gt; Dict&lt;/p&gt;&lt;p style=&quot;margin: 0px ; margin-left: 4px&quot;&gt;+ get_group_statistics(group_id: int, **kwargs) -&amp;gt; Dict&lt;/p&gt;&lt;p style=&quot;margin: 0px ; margin-left: 4px&quot;&gt;+ get_posts_from_date(group_id: int, from_date_unixtime: int): generator&lt;/p&gt;&lt;p style=&quot;margin: 0px ; margin-left: 4px&quot;&gt;+ get_post_liker_ids(group_id: int, post_id: int, likes_count: int): generator&lt;/p&gt;&lt;p style=&quot;margin: 0px ; margin-left: 4px&quot;&gt;+ get_post_comments(group_id: int, post_id: int, comments_count: int): generator&lt;/p&gt;&lt;p style=&quot;margin: 0px ; margin-left: 4px&quot;&gt;+ get_post_reposts(group_id: int, post_id: int, reposts_count: int): generator&lt;/p&gt;&lt;p style=&quot;margin: 0px ; margin-left: 4px&quot;&gt;+ get_user(user_id: int, fields: str)&lt;/p&gt;&lt;p style=&quot;margin: 0px ; margin-left: 4px&quot;&gt;+ get_comment(group_id: int, comment_id: int)&lt;/p&gt;&lt;p style=&quot;margin: 0px ; margin-left: 4px&quot;&gt;+ get_group_member_ids(group_id: int, count: int)&lt;/p&gt;&lt;p style=&quot;margin: 0px ; margin-left: 4px&quot;&gt;+ get_longpoll(group_id: int): VkBotLongPoll&lt;/p&gt;" style="verticalAlign=top;align=left;overflow=fill;fontSize=12;fontFamily=Helvetica;html=1;" parent="WIyWlLk6GJQsqaUBKTNV-1" vertex="1"><mxGeometry x="-1450" y="1552.5" width="460" height="290" as="geometry"/></mxCell><mxCell id="46" value="&lt;p style=&quot;margin: 0px ; margin-top: 4px ; text-align: center&quot;&gt;&lt;b&gt;Text&lt;/b&gt;&lt;/p&gt;&lt;hr size=&quot;1&quot;&gt;&lt;p style=&quot;margin: 0px ; margin-left: 4px&quot;&gt;+ text: str&lt;br&gt;&lt;/p&gt;&lt;p style=&quot;margin: 0px ; margin-left: 4px&quot;&gt;+ font_name: str&lt;/p&gt;&lt;p style=&quot;margin: 0px ; margin-left: 4px&quot;&gt;+ font_size: int&lt;/p&gt;&lt;p style=&quot;margin: 0px ; margin-left: 4px&quot;&gt;+ fill: str&lt;/p&gt;&lt;p style=&quot;margin: 0px ; margin-left: 4px&quot;&gt;+ anchor: str&lt;/p&gt;&lt;p style=&quot;margin: 0px ; margin-left: 4px&quot;&gt;+ spacing: str&lt;/p&gt;&lt;p style=&quot;margin: 0px ; margin-left: 4px&quot;&gt;+ direction: str&lt;/p&gt;&lt;p style=&quot;margin: 0px ; margin-left: 4px&quot;&gt;+ stroke_width: int&lt;/p&gt;&lt;p style=&quot;margin: 0px ; margin-left: 4px&quot;&gt;+ stroke_fill: str&lt;/p&gt;&lt;hr size=&quot;1&quot;&gt;&lt;p style=&quot;margin: 0px ; margin-left: 4px&quot;&gt;+ draw(surface) -&amp;gt; Image&lt;br&gt;&lt;/p&gt;&lt;p style=&quot;margin: 0px ; margin-left: 4px&quot;&gt;+ get_text() -&amp;gt; str&lt;/p&gt;" style="verticalAlign=top;align=left;overflow=fill;fontSize=12;fontFamily=Helvetica;html=1;" parent="WIyWlLk6GJQsqaUBKTNV-1" vertex="1"><mxGeometry x="140" y="1530" width="200" height="220" as="geometry"/></mxCell><mxCell id="49" value="LimitedText" style="swimlane;fontStyle=1;align=center;verticalAlign=top;childLayout=stackLayout;horizontal=1;startSize=26;horizontalStack=0;resizeParent=1;resizeParentMax=0;resizeLast=0;collapsible=1;marginBottom=0;" parent="WIyWlLk6GJQsqaUBKTNV-1" vertex="1"><mxGeometry x="285" y="2050" width="160" height="124" as="geometry"/></mxCell><mxCell id="50" value="+ max_size: int&#10;+ action: str&#10;+ end_symbols: str" style="text;strokeColor=none;fillColor=none;align=left;verticalAlign=top;spacingLeft=4;spacingRight=4;overflow=hidden;rotatable=0;points=[[0,0.5],[1,0.5]];portConstraint=eastwest;" parent="49" vertex="1"><mxGeometry y="26" width="160" height="64" as="geometry"/></mxCell><mxCell id="51" value="" style="line;strokeWidth=1;fillColor=none;align=left;verticalAlign=middle;spacingTop=-1;spacingLeft=3;spacingRight=3;rotatable=0;labelPosition=right;points=[];portConstraint=eastwest;" parent="49" vertex="1"><mxGeometry y="90" width="160" height="8" as="geometry"/></mxCell><mxCell id="52" value="+ get_text() -&gt; str" style="text;strokeColor=none;fillColor=none;align=left;verticalAlign=top;spacingLeft=4;spacingRight=4;overflow=hidden;rotatable=0;points=[[0,0.5],[1,0.5]];portConstraint=eastwest;" parent="49" vertex="1"><mxGeometry y="98" width="160" height="26" as="geometry"/></mxCell><mxCell id="60" value="Statistics" style="swimlane;fontStyle=1;align=center;verticalAlign=top;childLayout=stackLayout;horizontal=1;startSize=26;horizontalStack=0;resizeParent=1;resizeParentMax=0;resizeLast=0;collapsible=1;marginBottom=0;" parent="WIyWlLk6GJQsqaUBKTNV-1" vertex="1"><mxGeometry x="705" y="1530" width="160" height="88" as="geometry"/></mxCell><mxCell id="61" value="+ interval&#10;+ group_id&#10;+ text: Text" style="text;strokeColor=none;fillColor=none;align=left;verticalAlign=top;spacingLeft=4;spacingRight=4;overflow=hidden;rotatable=0;points=[[0,0.5],[1,0.5]];portConstraint=eastwest;" parent="60" vertex="1"><mxGeometry y="26" width="160" height="54" as="geometry"/></mxCell><mxCell id="62" value="" style="line;strokeWidth=1;fillColor=none;align=left;verticalAlign=middle;spacingTop=-1;spacingLeft=3;spacingRight=3;rotatable=0;labelPosition=right;points=[];portConstraint=eastwest;" parent="60" vertex="1"><mxGeometry y="80" width="160" height="8" as="geometry"/></mxCell><mxCell id="70" value="Profile" style="swimlane;fontStyle=1;align=center;verticalAlign=top;childLayout=stackLayout;horizontal=1;startSize=26;horizontalStack=0;resizeParent=1;resizeParentMax=0;resizeLast=0;collapsible=1;marginBottom=0;" parent="WIyWlLk6GJQsqaUBKTNV-1" vertex="1"><mxGeometry x="930" y="1519.5" width="160" height="114" as="geometry"/></mxCell><mxCell id="71" value="info: UserInfo&#10;avatar: Picture&#10;user_id: int" style="text;strokeColor=none;fillColor=none;align=left;verticalAlign=top;spacingLeft=4;spacingRight=4;overflow=hidden;rotatable=0;points=[[0,0.5],[1,0.5]];portConstraint=eastwest;" parent="70" vertex="1"><mxGeometry y="26" width="160" height="54" as="geometry"/></mxCell><mxCell id="72" value="" style="line;strokeWidth=1;fillColor=none;align=left;verticalAlign=middle;spacingTop=-1;spacingLeft=3;spacingRight=3;rotatable=0;labelPosition=right;points=[];portConstraint=eastwest;" parent="70" vertex="1"><mxGeometry y="80" width="160" height="8" as="geometry"/></mxCell><mxCell id="73" value="+ draw(surface) -&gt; Image" style="text;strokeColor=none;fillColor=none;align=left;verticalAlign=top;spacingLeft=4;spacingRight=4;overflow=hidden;rotatable=0;points=[[0,0.5],[1,0.5]];portConstraint=eastwest;" parent="70" vertex="1"><mxGeometry y="88" width="160" height="26" as="geometry"/></mxCell><mxCell id="81" value="Rating" style="swimlane;fontStyle=1;align=center;verticalAlign=top;childLayout=stackLayout;horizontal=1;startSize=40;horizontalStack=0;resizeParent=1;resizeParentMax=0;resizeLast=0;collapsible=1;marginBottom=0;" parent="WIyWlLk6GJQsqaUBKTNV-1" vertex="1"><mxGeometry x="1190" y="1480" width="180" height="150" as="geometry"/></mxCell><mxCell id="82" value="+ places: List[RatingPlace]&#10;+ rating_info: RatingInfo&#10;" style="text;strokeColor=none;fillColor=none;align=left;verticalAlign=top;spacingLeft=4;spacingRight=4;overflow=hidden;rotatable=0;points=[[0,0.5],[1,0.5]];portConstraint=eastwest;" parent="81" vertex="1"><mxGeometry y="40" width="180" height="50" as="geometry"/></mxCell><mxCell id="83" value="" style="line;strokeWidth=1;fillColor=none;align=left;verticalAlign=middle;spacingTop=-1;spacingLeft=3;spacingRight=3;rotatable=0;labelPosition=right;points=[];portConstraint=eastwest;" parent="81" vertex="1"><mxGeometry y="90" width="180" height="8" as="geometry"/></mxCell><mxCell id="84" value="&#10;draw()" style="text;strokeColor=none;fillColor=none;align=left;verticalAlign=top;spacingLeft=4;spacingRight=4;overflow=hidden;rotatable=0;points=[[0,0.5],[1,0.5]];portConstraint=eastwest;" parent="81" vertex="1"><mxGeometry y="98" width="180" height="52" as="geometry"/></mxCell><mxCell id="90" value="&lt;&lt;singleton&gt;&gt;&#10;LongpollListener" style="swimlane;fontStyle=1;align=center;verticalAlign=top;childLayout=stackLayout;horizontal=1;startSize=40;horizontalStack=0;resizeParent=1;resizeParentMax=0;resizeLast=0;collapsible=1;marginBottom=0;rounded=0;shadow=0;glass=0;sketch=0;" parent="WIyWlLk6GJQsqaUBKTNV-1" vertex="1"><mxGeometry x="-1340" y="1982.5" width="160" height="80" as="geometry"/></mxCell><mxCell id="92" value="" style="line;strokeWidth=1;fillColor=none;align=left;verticalAlign=middle;spacingTop=-1;spacingLeft=3;spacingRight=3;rotatable=0;labelPosition=right;points=[];portConstraint=eastwest;rounded=0;shadow=0;glass=0;sketch=0;" parent="90" vertex="1"><mxGeometry y="40" width="160" height="8" as="geometry"/></mxCell><mxCell id="93" value="+ listen(): void" style="text;strokeColor=none;fillColor=none;align=left;verticalAlign=top;spacingLeft=4;spacingRight=4;overflow=hidden;rotatable=0;points=[[0,0.5],[1,0.5]];portConstraint=eastwest;rounded=0;shadow=0;glass=0;sketch=0;" parent="90" vertex="1"><mxGeometry y="48" width="160" height="32" as="geometry"/></mxCell><mxCell id="96" value="MemberInfo" style="swimlane;fontStyle=0;childLayout=stackLayout;horizontal=1;startSize=26;fillColor=none;horizontalStack=0;resizeParent=1;resizeParentMax=0;resizeLast=0;collapsible=1;marginBottom=0;rounded=0;shadow=0;glass=0;sketch=0;" parent="WIyWlLk6GJQsqaUBKTNV-1" vertex="1"><mxGeometry x="615" y="2528" width="240" height="200" as="geometry"/></mxCell><mxCell id="97" value="+ member_id: int&#10;&#10;+ like_posts: List[int]&#10;+ like_comments: List[int]&#10;+ comment_posts: List[int]&#10;+ comment_comments: List[int]&#10;+ repost_posts: List[int]&#10;+ released_posts: List[int]&#10;+ donates: int&#10;&#10;+ get_easy_info(): EasyMemberInfo" style="text;strokeColor=none;fillColor=none;align=left;verticalAlign=top;spacingLeft=4;spacingRight=4;overflow=hidden;rotatable=0;points=[[0,0.5],[1,0.5]];portConstraint=eastwest;rounded=0;shadow=0;glass=0;sketch=0;" parent="96" vertex="1"><mxGeometry y="26" width="240" height="174" as="geometry"/></mxCell><mxCell id="100" value="RatingPlace" style="swimlane;fontStyle=1;align=center;verticalAlign=top;childLayout=stackLayout;horizontal=1;startSize=26;horizontalStack=0;resizeParent=1;resizeParentMax=0;resizeLast=0;collapsible=1;marginBottom=0;rounded=0;shadow=0;glass=0;sketch=0;" parent="WIyWlLk6GJQsqaUBKTNV-1" vertex="1"><mxGeometry x="1450" y="1501.5" width="160" height="104" as="geometry"/></mxCell><mxCell id="101" value="profile: Profile&#10;text: RatingPlaceInfo" style="text;strokeColor=none;fillColor=none;align=left;verticalAlign=top;spacingLeft=4;spacingRight=4;overflow=hidden;rotatable=0;points=[[0,0.5],[1,0.5]];portConstraint=eastwest;rounded=0;shadow=0;glass=0;sketch=0;" parent="100" vertex="1"><mxGeometry y="26" width="160" height="44" as="geometry"/></mxCell><mxCell id="102" value="" style="line;strokeWidth=1;fillColor=none;align=left;verticalAlign=middle;spacingTop=-1;spacingLeft=3;spacingRight=3;rotatable=0;labelPosition=right;points=[];portConstraint=eastwest;rounded=0;shadow=0;glass=0;sketch=0;" parent="100" vertex="1"><mxGeometry y="70" width="160" height="8" as="geometry"/></mxCell><mxCell id="103" value="+ draw(surface) -&gt; Image" style="text;strokeColor=none;fillColor=none;align=left;verticalAlign=top;spacingLeft=4;spacingRight=4;overflow=hidden;rotatable=0;points=[[0,0.5],[1,0.5]];portConstraint=eastwest;rounded=0;shadow=0;glass=0;sketch=0;" parent="100" vertex="1"><mxGeometry y="78" width="160" height="26" as="geometry"/></mxCell><mxCell id="113" value="&lt;&lt;interface&gt;&gt;&#10;WidgetBuilder" style="swimlane;fontStyle=3;align=center;verticalAlign=top;childLayout=stackLayout;horizontal=1;startSize=40;horizontalStack=0;resizeParent=1;resizeParentMax=0;resizeLast=0;collapsible=1;marginBottom=0;rounded=0;shadow=0;glass=0;sketch=0;" parent="WIyWlLk6GJQsqaUBKTNV-1" vertex="1"><mxGeometry x="30" y="492" width="200" height="100" as="geometry"/></mxCell><mxCell id="115" value="" style="line;strokeWidth=1;fillColor=none;align=left;verticalAlign=middle;spacingTop=-1;spacingLeft=3;spacingRight=3;rotatable=0;labelPosition=right;points=[];portConstraint=eastwest;rounded=0;shadow=0;glass=0;sketch=0;" parent="113" vertex="1"><mxGeometry y="40" width="200" height="8" as="geometry"/></mxCell><mxCell id="116" value="+ create(**kwargs): Widget" style="text;strokeColor=none;fillColor=none;align=left;verticalAlign=top;spacingLeft=4;spacingRight=4;overflow=hidden;rotatable=0;points=[[0,0.5],[1,0.5]];portConstraint=eastwest;rounded=0;shadow=0;glass=0;sketch=0;fontStyle=2" parent="113" vertex="1"><mxGeometry y="48" width="200" height="52" as="geometry"/></mxCell><mxCell id="117" value="PictureBuilder" style="swimlane;fontStyle=1;align=center;verticalAlign=top;childLayout=stackLayout;horizontal=1;startSize=25;horizontalStack=0;resizeParent=1;resizeParentMax=0;resizeLast=0;collapsible=1;marginBottom=0;rounded=0;shadow=0;glass=0;sketch=0;" parent="WIyWlLk6GJQsqaUBKTNV-1" vertex="1"><mxGeometry x="310" y="855" width="160" height="59" as="geometry"/></mxCell><mxCell id="118" value="" style="line;strokeWidth=1;fillColor=none;align=left;verticalAlign=middle;spacingTop=-1;spacingLeft=3;spacingRight=3;rotatable=0;labelPosition=right;points=[];portConstraint=eastwest;rounded=0;shadow=0;glass=0;sketch=0;" parent="117" vertex="1"><mxGeometry y="25" width="160" height="8" as="geometry"/></mxCell><mxCell id="119" value="+ create(**kwargs): Picture" style="text;strokeColor=none;fillColor=none;align=left;verticalAlign=top;spacingLeft=4;spacingRight=4;overflow=hidden;rotatable=0;points=[[0,0.5],[1,0.5]];portConstraint=eastwest;rounded=0;shadow=0;glass=0;sketch=0;" parent="117" vertex="1"><mxGeometry y="33" width="160" height="26" as="geometry"/></mxCell><mxCell id="129" value="DateBuilder" style="swimlane;fontStyle=1;align=center;verticalAlign=top;childLayout=stackLayout;horizontal=1;startSize=24;horizontalStack=0;resizeParent=1;resizeParentMax=0;resizeLast=0;collapsible=1;marginBottom=0;rounded=0;shadow=0;glass=0;sketch=0;" parent="WIyWlLk6GJQsqaUBKTNV-1" vertex="1"><mxGeometry x="-240" y="830" width="160" height="58" as="geometry"/></mxCell><mxCell id="130" value="" style="line;strokeWidth=1;fillColor=none;align=left;verticalAlign=middle;spacingTop=-1;spacingLeft=3;spacingRight=3;rotatable=0;labelPosition=right;points=[];portConstraint=eastwest;rounded=0;shadow=0;glass=0;sketch=0;" parent="129" vertex="1"><mxGeometry y="24" width="160" height="8" as="geometry"/></mxCell><mxCell id="131" value="+ create(**kwargs): Date" style="text;strokeColor=none;fillColor=none;align=left;verticalAlign=top;spacingLeft=4;spacingRight=4;overflow=hidden;rotatable=0;points=[[0,0.5],[1,0.5]];portConstraint=eastwest;rounded=0;shadow=0;glass=0;sketch=0;" parent="129" vertex="1"><mxGeometry y="32" width="160" height="26" as="geometry"/></mxCell><mxCell id="132" value="ProfileBuilder" style="swimlane;fontStyle=1;align=center;verticalAlign=top;childLayout=stackLayout;horizontal=1;startSize=23;horizontalStack=0;resizeParent=1;resizeParentMax=0;resizeLast=0;collapsible=1;marginBottom=0;rounded=0;shadow=0;glass=0;sketch=0;" parent="WIyWlLk6GJQsqaUBKTNV-1" vertex="1"><mxGeometry x="310" y="652" width="160" height="57" as="geometry"/></mxCell><mxCell id="133" value="" style="line;strokeWidth=1;fillColor=none;align=left;verticalAlign=middle;spacingTop=-1;spacingLeft=3;spacingRight=3;rotatable=0;labelPosition=right;points=[];portConstraint=eastwest;rounded=0;shadow=0;glass=0;sketch=0;" parent="132" vertex="1"><mxGeometry y="23" width="160" height="8" as="geometry"/></mxCell><mxCell id="134" value="+ create(**kwargs): Profile" style="text;strokeColor=none;fillColor=none;align=left;verticalAlign=top;spacingLeft=4;spacingRight=4;overflow=hidden;rotatable=0;points=[[0,0.5],[1,0.5]];portConstraint=eastwest;rounded=0;shadow=0;glass=0;sketch=0;" parent="132" vertex="1"><mxGeometry y="31" width="160" height="26" as="geometry"/></mxCell><mxCell id="135" value="RatingBuilder" style="swimlane;fontStyle=0;align=center;verticalAlign=top;childLayout=stackLayout;horizontal=1;startSize=25;horizontalStack=0;resizeParent=1;resizeParentMax=0;resizeLast=0;collapsible=1;marginBottom=0;rounded=0;shadow=0;glass=0;sketch=0;" parent="WIyWlLk6GJQsqaUBKTNV-1" vertex="1"><mxGeometry x="-240" y="650" width="160" height="59" as="geometry"/></mxCell><mxCell id="136" value="" style="line;strokeWidth=1;fillColor=none;align=left;verticalAlign=middle;spacingTop=-1;spacingLeft=3;spacingRight=3;rotatable=0;labelPosition=right;points=[];portConstraint=eastwest;rounded=0;shadow=0;glass=0;sketch=0;" parent="135" vertex="1"><mxGeometry y="25" width="160" height="8" as="geometry"/></mxCell><mxCell id="137" value="+ create(**kwargs): Rating" style="text;strokeColor=none;fillColor=none;align=left;verticalAlign=top;spacingLeft=4;spacingRight=4;overflow=hidden;rotatable=0;points=[[0,0.5],[1,0.5]];portConstraint=eastwest;rounded=0;shadow=0;glass=0;sketch=0;" parent="135" vertex="1"><mxGeometry y="33" width="160" height="26" as="geometry"/></mxCell><mxCell id="126" value="StatisticsBuilder" style="swimlane;fontStyle=1;align=center;verticalAlign=top;childLayout=stackLayout;horizontal=1;startSize=24;horizontalStack=0;resizeParent=1;resizeParentMax=0;resizeLast=0;collapsible=1;marginBottom=0;rounded=0;shadow=0;glass=0;sketch=0;" parent="WIyWlLk6GJQsqaUBKTNV-1" vertex="1"><mxGeometry x="-240" y="910" width="165" height="58" as="geometry"/></mxCell><mxCell id="127" value="" style="line;strokeWidth=1;fillColor=none;align=left;verticalAlign=middle;spacingTop=-1;spacingLeft=3;spacingRight=3;rotatable=0;labelPosition=right;points=[];portConstraint=eastwest;rounded=0;shadow=0;glass=0;sketch=0;" parent="126" vertex="1"><mxGeometry y="24" width="165" height="8" as="geometry"/></mxCell><mxCell id="128" value="+ create(**kwargs): Statistics" style="text;strokeColor=none;fillColor=none;align=left;verticalAlign=top;spacingLeft=4;spacingRight=4;overflow=hidden;rotatable=0;points=[[0,0.5],[1,0.5]];portConstraint=eastwest;rounded=0;shadow=0;glass=0;sketch=0;" parent="126" vertex="1"><mxGeometry y="32" width="165" height="26" as="geometry"/></mxCell><mxCell id="156" value="TextBuilder" style="swimlane;fontStyle=1;align=center;verticalAlign=top;childLayout=stackLayout;horizontal=1;startSize=26;horizontalStack=0;resizeParent=1;resizeParentMax=0;resizeLast=0;collapsible=1;marginBottom=0;rounded=0;shadow=0;glass=0;sketch=0;" parent="WIyWlLk6GJQsqaUBKTNV-1" vertex="1"><mxGeometry x="310" y="487" width="200" height="110" as="geometry"/></mxCell><mxCell id="158" value="" style="line;strokeWidth=1;fillColor=none;align=left;verticalAlign=middle;spacingTop=-1;spacingLeft=3;spacingRight=3;rotatable=0;labelPosition=right;points=[];portConstraint=eastwest;rounded=0;shadow=0;glass=0;sketch=0;" parent="156" vertex="1"><mxGeometry y="26" width="200" height="8" as="geometry"/></mxCell><mxCell id="159" value="+ create(**kwargs): Text&#10;- is_formatting_text(**kwargs): bool&#10;- is_spaced_text(**kwargs): bool&#10;- is_limited_text(**kwargs): bool" style="text;strokeColor=none;fillColor=none;align=left;verticalAlign=top;spacingLeft=4;spacingRight=4;overflow=hidden;rotatable=0;points=[[0,0.5],[1,0.5]];portConstraint=eastwest;rounded=0;shadow=0;glass=0;sketch=0;" parent="156" vertex="1"><mxGeometry y="34" width="200" height="76" as="geometry"/></mxCell><mxCell id="171" value="RatingMembers" style="swimlane;fontStyle=1;align=center;verticalAlign=top;childLayout=stackLayout;horizontal=1;startSize=26;horizontalStack=0;resizeParent=1;resizeParentMax=0;resizeLast=0;collapsible=1;marginBottom=0;" parent="WIyWlLk6GJQsqaUBKTNV-1" vertex="1"><mxGeometry x="-869" y="2830" width="250" height="130" as="geometry"/></mxCell><mxCell id="172" value="- rating: Dict[int, MemberInfo]" style="text;strokeColor=none;fillColor=none;align=left;verticalAlign=top;spacingLeft=4;spacingRight=4;overflow=hidden;rotatable=0;points=[[0,0.5],[1,0.5]];portConstraint=eastwest;" parent="171" vertex="1"><mxGeometry y="26" width="250" height="34" as="geometry"/></mxCell><mxCell id="173" value="" style="line;strokeWidth=1;fillColor=none;align=left;verticalAlign=middle;spacingTop=-1;spacingLeft=3;spacingRight=3;rotatable=0;labelPosition=right;points=[];portConstraint=eastwest;" parent="171" vertex="1"><mxGeometry y="60" width="250" height="8" as="geometry"/></mxCell><mxCell id="174" value="+ add(member_id: int): MemberInfo&#10;+ get_member(member_id: int) MemberInfo&#10;+ get_all(): List[MemberInfo]" style="text;strokeColor=none;fillColor=none;align=left;verticalAlign=top;spacingLeft=4;spacingRight=4;overflow=hidden;rotatable=0;points=[[0,0.5],[1,0.5]];portConstraint=eastwest;" parent="171" vertex="1"><mxGeometry y="68" width="250" height="62" as="geometry"/></mxCell><mxCell id="177" value="RatingHandler" style="swimlane;fontStyle=1;align=center;verticalAlign=top;childLayout=stackLayout;horizontal=1;startSize=30;horizontalStack=0;resizeParent=1;resizeParentMax=0;resizeLast=0;collapsible=1;marginBottom=0;" parent="WIyWlLk6GJQsqaUBKTNV-1" vertex="1"><mxGeometry x="-1604" y="2550" width="570" height="390" as="geometry"/></mxCell><mxCell id="178" value="&lt;i&gt;- __NANDLERS__: Dict[int, RatingHandler]&lt;br&gt;&lt;/i&gt;- group_id: int&lt;br&gt;- rating_info: Dict[Interval, List[RatingInfo]]&lt;br&gt;- ratings: Dict[Interval, RatingMembers]&lt;br&gt;- last_subcriber_ids: List[int]&lt;br&gt;- max_last_subs: int&lt;br&gt;- formatter_function: FormatterFunction&lt;br&gt;+ scheduler: BackgroundScheduler" style="text;strokeColor=none;fillColor=none;align=left;verticalAlign=top;spacingLeft=4;spacingRight=4;overflow=hidden;rotatable=0;points=[[0,0.5],[1,0.5]];portConstraint=eastwest;html=1;" parent="177" vertex="1"><mxGeometry y="30" width="570" height="140" as="geometry"/></mxCell><mxCell id="179" value="" style="line;strokeWidth=1;fillColor=none;align=left;verticalAlign=middle;spacingTop=-1;spacingLeft=3;spacingRight=3;rotatable=0;labelPosition=right;points=[];portConstraint=eastwest;" parent="177" vertex="1"><mxGeometry y="170" width="570" height="8" as="geometry"/></mxCell><mxCell id="180" value="+ add_rating(rating_info: RatingInfo)&lt;br&gt;+ update(event: any): void&lt;br&gt;+ update_donates(): void&lt;br&gt;+ update_last_subs(): void&lt;br&gt;+ get_last_subscribers_ids(number: int): List[int]&lt;br&gt;+ add_track_last_subscribers(max_subs: int): void&lt;u&gt;&lt;br&gt;+ get_formula_member_info(member_info: MemberInfo): Dict[str, any]&lt;/u&gt;&lt;br&gt;- update_ratings(): void&lt;br&gt;- reset_rating(interval: Interval)&lt;br&gt;- update_rating(interval: Interval, rating_info: RatingInfo): void&lt;br&gt;- calc_points(member: MemberInfo, point_formula: str): EasyMemberInfo&lt;br&gt;&lt;u&gt;- is_reset_rating(interval: Interval): bool&lt;/u&gt;&lt;br&gt;- add_point(user_id: int, event: UpdateRatingEvents, resource: int, resourse_unixtime: int): bool" style="text;strokeColor=none;fillColor=none;align=left;verticalAlign=top;spacingLeft=4;spacingRight=4;overflow=hidden;rotatable=0;points=[[0,0.5],[1,0.5]];portConstraint=eastwest;html=1;" parent="177" vertex="1"><mxGeometry y="178" width="570" height="212" as="geometry"/></mxCell><mxCell id="198" value="&lt;&lt;interface&gt;&gt;&#10;Subcriber" style="swimlane;fontStyle=1;align=center;verticalAlign=top;childLayout=stackLayout;horizontal=1;startSize=35;horizontalStack=0;resizeParent=1;resizeParentMax=0;resizeLast=0;collapsible=1;marginBottom=0;rounded=0;shadow=0;glass=0;sketch=0;" parent="WIyWlLk6GJQsqaUBKTNV-1" vertex="1"><mxGeometry x="-1050" y="2170" width="160" height="69" as="geometry"/></mxCell><mxCell id="199" value="" style="line;strokeWidth=1;fillColor=none;align=left;verticalAlign=middle;spacingTop=-1;spacingLeft=3;spacingRight=3;rotatable=0;labelPosition=right;points=[];portConstraint=eastwest;rounded=0;shadow=0;glass=0;sketch=0;" parent="198" vertex="1"><mxGeometry y="35" width="160" height="8" as="geometry"/></mxCell><mxCell id="200" value="+ update(event)" style="text;strokeColor=none;fillColor=none;align=left;verticalAlign=top;spacingLeft=4;spacingRight=4;overflow=hidden;rotatable=0;points=[[0,0.5],[1,0.5]];portConstraint=eastwest;rounded=0;shadow=0;glass=0;sketch=0;" parent="198" vertex="1"><mxGeometry y="43" width="160" height="26" as="geometry"/></mxCell><mxCell id="211" value="&lt;&lt;Interface&gt;&gt;&#10;TextFormatter" style="swimlane;fontStyle=1;align=center;verticalAlign=top;childLayout=stackLayout;horizontal=1;startSize=35;horizontalStack=0;resizeParent=1;resizeParentMax=0;resizeLast=0;collapsible=1;marginBottom=0;" parent="WIyWlLk6GJQsqaUBKTNV-1" vertex="1"><mxGeometry x="827" y="688" width="333" height="110" as="geometry"/></mxCell><mxCell id="212" value="+ function: FormatterFunction" style="text;strokeColor=none;fillColor=none;align=left;verticalAlign=top;spacingLeft=4;spacingRight=4;overflow=hidden;rotatable=0;points=[[0,0.5],[1,0.5]];portConstraint=eastwest;" parent="211" vertex="1"><mxGeometry y="35" width="333" height="35" as="geometry"/></mxCell><mxCell id="213" value="" style="line;strokeWidth=1;fillColor=none;align=left;verticalAlign=middle;spacingTop=-1;spacingLeft=3;spacingRight=3;rotatable=0;labelPosition=right;points=[];portConstraint=eastwest;" parent="211" vertex="1"><mxGeometry y="70" width="333" height="8" as="geometry"/></mxCell><mxCell id="214" value="+ get_format_text(text: str, *args, **kwargs): str" style="text;strokeColor=none;fillColor=none;align=left;verticalAlign=top;spacingLeft=4;spacingRight=4;overflow=hidden;rotatable=0;points=[[0,0.5],[1,0.5]];portConstraint=eastwest;" parent="211" vertex="1"><mxGeometry y="78" width="333" height="32" as="geometry"/></mxCell><mxCell id="216" value="&lt;h1&gt;Форматирование текста&lt;/h1&gt;&lt;div&gt;&lt;span&gt;Каждую подстроку в фигурных скобках в тексте TextFormatter заменяет результатом функции function, которая возвращает пары ключ-значение. Слова, которых нет в ключах, игнорируются.&lt;/span&gt;&lt;br&gt;&lt;/div&gt;&lt;div&gt;TextInserter - вставка данных вместо фигурных скобок.&lt;/div&gt;&lt;div&gt;TextCalculator - вставка данных и вычисление строки. Строка должна состоять из&amp;nbsp; фигурных скобок и арифметических операций.&lt;/div&gt;&lt;div&gt;TextShifter - вставляет данные вместо фигурных скобок и, если в фигурных скобках есть арифметические операции, выполняет их над данными.&lt;/div&gt;" style="text;html=1;strokeColor=none;fillColor=none;spacing=5;spacingTop=-20;whiteSpace=wrap;overflow=hidden;rounded=0;" parent="WIyWlLk6GJQsqaUBKTNV-1" vertex="1"><mxGeometry x="1240" y="610" width="270" height="285" as="geometry"/></mxCell><mxCell id="228" style="edgeStyle=orthogonalEdgeStyle;rounded=0;orthogonalLoop=1;jettySize=auto;html=1;endArrow=block;endFill=0;" parent="WIyWlLk6GJQsqaUBKTNV-1" source="218" target="211" edge="1"><mxGeometry relative="1" as="geometry"/></mxCell><mxCell id="218" value="TextInserter" style="swimlane;fontStyle=1;align=center;verticalAlign=top;childLayout=stackLayout;horizontal=1;startSize=26;horizontalStack=0;resizeParent=1;resizeParentMax=0;resizeLast=0;collapsible=1;marginBottom=0;" parent="WIyWlLk6GJQsqaUBKTNV-1" vertex="1"><mxGeometry x="730" y="875" width="160" height="60" as="geometry"/></mxCell><mxCell id="220" value="" style="line;strokeWidth=1;fillColor=none;align=left;verticalAlign=middle;spacingTop=-1;spacingLeft=3;spacingRight=3;rotatable=0;labelPosition=right;points=[];portConstraint=eastwest;" parent="218" vertex="1"><mxGeometry y="26" width="160" height="8" as="geometry"/></mxCell><mxCell id="221" value="+ get_format_text(text): str" style="text;strokeColor=none;fillColor=none;align=left;verticalAlign=top;spacingLeft=4;spacingRight=4;overflow=hidden;rotatable=0;points=[[0,0.5],[1,0.5]];portConstraint=eastwest;" parent="218" vertex="1"><mxGeometry y="34" width="160" height="26" as="geometry"/></mxCell><mxCell id="230" style="edgeStyle=orthogonalEdgeStyle;rounded=0;orthogonalLoop=1;jettySize=auto;html=1;endArrow=block;endFill=0;" parent="WIyWlLk6GJQsqaUBKTNV-1" source="222" target="211" edge="1"><mxGeometry relative="1" as="geometry"/></mxCell><mxCell id="222" value="TextCalculator" style="swimlane;fontStyle=1;align=center;verticalAlign=top;childLayout=stackLayout;horizontal=1;startSize=26;horizontalStack=0;resizeParent=1;resizeParentMax=0;resizeLast=0;collapsible=1;marginBottom=0;" parent="WIyWlLk6GJQsqaUBKTNV-1" vertex="1"><mxGeometry x="1070" y="875" width="160" height="60" as="geometry"/></mxCell><mxCell id="223" value="" style="line;strokeWidth=1;fillColor=none;align=left;verticalAlign=middle;spacingTop=-1;spacingLeft=3;spacingRight=3;rotatable=0;labelPosition=right;points=[];portConstraint=eastwest;" parent="222" vertex="1"><mxGeometry y="26" width="160" height="8" as="geometry"/></mxCell><mxCell id="224" value="+ get_format_text(text): str" style="text;strokeColor=none;fillColor=none;align=left;verticalAlign=top;spacingLeft=4;spacingRight=4;overflow=hidden;rotatable=0;points=[[0,0.5],[1,0.5]];portConstraint=eastwest;" parent="222" vertex="1"><mxGeometry y="34" width="160" height="26" as="geometry"/></mxCell><mxCell id="229" style="edgeStyle=orthogonalEdgeStyle;rounded=0;orthogonalLoop=1;jettySize=auto;html=1;endArrow=block;endFill=0;" parent="WIyWlLk6GJQsqaUBKTNV-1" source="225" target="211" edge="1"><mxGeometry relative="1" as="geometry"/></mxCell><mxCell id="225" value="TextShifter" style="swimlane;fontStyle=1;align=center;verticalAlign=top;childLayout=stackLayout;horizontal=1;startSize=26;horizontalStack=0;resizeParent=1;resizeParentMax=0;resizeLast=0;collapsible=1;marginBottom=0;" parent="WIyWlLk6GJQsqaUBKTNV-1" vertex="1"><mxGeometry x="900" y="875" width="160" height="60" as="geometry"/></mxCell><mxCell id="226" value="" style="line;strokeWidth=1;fillColor=none;align=left;verticalAlign=middle;spacingTop=-1;spacingLeft=3;spacingRight=3;rotatable=0;labelPosition=right;points=[];portConstraint=eastwest;" parent="225" vertex="1"><mxGeometry y="26" width="160" height="8" as="geometry"/></mxCell><mxCell id="227" value="+ get_format_text(text): str" style="text;strokeColor=none;fillColor=none;align=left;verticalAlign=top;spacingLeft=4;spacingRight=4;overflow=hidden;rotatable=0;points=[[0,0.5],[1,0.5]];portConstraint=eastwest;" parent="225" vertex="1"><mxGeometry y="34" width="160" height="26" as="geometry"/></mxCell><mxCell id="248" value="&lt;h1&gt;Виджеты&lt;/h1&gt;&lt;div&gt;Виджет - основной объект для отображения информации.&amp;nbsp;&lt;/div&gt;&lt;div&gt;Есть несколько типов виджетов: Text, Picture, Statistics, Date, Profile, Rating. У каждого свои параметры и алгоритм отрисовки.&lt;/div&gt;" style="text;html=1;strokeColor=none;fillColor=none;spacing=5;spacingTop=-20;whiteSpace=wrap;overflow=hidden;rounded=0;" parent="WIyWlLk6GJQsqaUBKTNV-1" vertex="1"><mxGeometry x="-625" y="1140" width="265" height="140" as="geometry"/></mxCell><mxCell id="250" value="RandomPicture" style="swimlane;fontStyle=3;align=center;verticalAlign=top;childLayout=stackLayout;horizontal=1;startSize=26;horizontalStack=0;resizeParent=1;resizeParentMax=0;resizeLast=0;collapsible=1;marginBottom=0;" parent="WIyWlLk6GJQsqaUBKTNV-1" vertex="1"><mxGeometry x="-352" y="1982.5" width="172" height="120" as="geometry"/></mxCell><mxCell id="251" value="+ random_formula: str&#10;- random_function: function" style="text;strokeColor=none;fillColor=none;align=left;verticalAlign=top;spacingLeft=4;spacingRight=4;overflow=hidden;rotatable=0;points=[[0,0.5],[1,0.5]];portConstraint=eastwest;" parent="250" vertex="1"><mxGeometry y="26" width="172" height="44" as="geometry"/></mxCell><mxCell id="252" value="" style="line;strokeWidth=1;fillColor=none;align=left;verticalAlign=middle;spacingTop=-1;spacingLeft=3;spacingRight=3;rotatable=0;labelPosition=right;points=[];portConstraint=eastwest;" parent="250" vertex="1"><mxGeometry y="70" width="172" height="8" as="geometry"/></mxCell><mxCell id="253" value="+ get_image(): Image&#10;+ set_random_function(): void" style="text;strokeColor=none;fillColor=none;align=left;verticalAlign=top;spacingLeft=4;spacingRight=4;overflow=hidden;rotatable=0;points=[[0,0.5],[1,0.5]];portConstraint=eastwest;fontStyle=2" parent="250" vertex="1"><mxGeometry y="78" width="172" height="42" as="geometry"/></mxCell><mxCell id="259" value="VkAvatar" style="swimlane;fontStyle=1;align=center;verticalAlign=top;childLayout=stackLayout;horizontal=1;startSize=26;horizontalStack=0;resizeParent=1;resizeParentMax=0;resizeLast=0;collapsible=1;marginBottom=0;" parent="WIyWlLk6GJQsqaUBKTNV-1" vertex="1"><mxGeometry x="-640" y="1702.5" width="160" height="104" as="geometry"/></mxCell><mxCell id="260" value="+ crop_type&#10;+ user_id&#10;+ default_url" style="text;strokeColor=none;fillColor=none;align=left;verticalAlign=top;spacingLeft=4;spacingRight=4;overflow=hidden;rotatable=0;points=[[0,0.5],[1,0.5]];portConstraint=eastwest;" parent="259" vertex="1"><mxGeometry y="26" width="160" height="44" as="geometry"/></mxCell><mxCell id="261" value="" style="line;strokeWidth=1;fillColor=none;align=left;verticalAlign=middle;spacingTop=-1;spacingLeft=3;spacingRight=3;rotatable=0;labelPosition=right;points=[];portConstraint=eastwest;" parent="259" vertex="1"><mxGeometry y="70" width="160" height="8" as="geometry"/></mxCell><mxCell id="262" value="+ get_image(): Image" style="text;strokeColor=none;fillColor=none;align=left;verticalAlign=top;spacingLeft=4;spacingRight=4;overflow=hidden;rotatable=0;points=[[0,0.5],[1,0.5]];portConstraint=eastwest;" parent="259" vertex="1"><mxGeometry y="78" width="160" height="26" as="geometry"/></mxCell><mxCell id="268" value="SpacedText" style="swimlane;fontStyle=1;align=center;verticalAlign=top;childLayout=stackLayout;horizontal=1;startSize=26;horizontalStack=0;resizeParent=1;resizeParentMax=0;resizeLast=0;collapsible=1;marginBottom=0;" parent="WIyWlLk6GJQsqaUBKTNV-1" vertex="1"><mxGeometry x="40" y="2050" width="160" height="124" as="geometry"/></mxCell><mxCell id="269" value="+ space_type: str (pre_formattin, post_formating)" style="text;strokeColor=none;fillColor=none;align=left;verticalAlign=top;spacingLeft=4;spacingRight=4;overflow=hidden;rotatable=0;points=[[0,0.5],[1,0.5]];portConstraint=eastwest;" parent="268" vertex="1"><mxGeometry y="26" width="160" height="64" as="geometry"/></mxCell><mxCell id="270" value="" style="line;strokeWidth=1;fillColor=none;align=left;verticalAlign=middle;spacingTop=-1;spacingLeft=3;spacingRight=3;rotatable=0;labelPosition=right;points=[];portConstraint=eastwest;" parent="268" vertex="1"><mxGeometry y="90" width="160" height="8" as="geometry"/></mxCell><mxCell id="271" value="+ get_text() -&gt; str" style="text;strokeColor=none;fillColor=none;align=left;verticalAlign=top;spacingLeft=4;spacingRight=4;overflow=hidden;rotatable=0;points=[[0,0.5],[1,0.5]];portConstraint=eastwest;" parent="268" vertex="1"><mxGeometry y="98" width="160" height="26" as="geometry"/></mxCell><mxCell id="275" value="&lt;p style=&quot;margin: 0px ; margin-top: 4px ; text-align: center&quot;&gt;&lt;b&gt;FormattingText&lt;/b&gt;&lt;/p&gt;&lt;hr size=&quot;1&quot;&gt;&lt;p style=&quot;margin: 0px ; margin-left: 4px&quot;&gt;&lt;span&gt;+ formatter: TextFormatter&lt;/span&gt;&lt;br&gt;&lt;/p&gt;&lt;hr size=&quot;1&quot;&gt;&lt;p style=&quot;margin: 0px ; margin-left: 4px&quot;&gt;+ draw(surface) -&amp;gt; Image&lt;br&gt;&lt;/p&gt;&lt;p style=&quot;margin: 0px ; margin-left: 4px&quot;&gt;+ get_text() -&amp;gt; str&lt;/p&gt;" style="verticalAlign=top;align=left;overflow=fill;fontSize=12;fontFamily=Helvetica;html=1;" parent="WIyWlLk6GJQsqaUBKTNV-1" vertex="1"><mxGeometry x="140" y="1868.5" width="200" height="100" as="geometry"/></mxCell><mxCell id="287" value="Date" style="swimlane;fontStyle=1;align=center;verticalAlign=top;childLayout=stackLayout;horizontal=1;startSize=26;horizontalStack=0;resizeParent=1;resizeParentMax=0;resizeLast=0;collapsible=1;marginBottom=0;" parent="WIyWlLk6GJQsqaUBKTNV-1" vertex="1"><mxGeometry x="490" y="1530" width="160" height="88" as="geometry"/></mxCell><mxCell id="288" value="+ shift: dict&#10;+ text: FormattingText&#10;" style="text;strokeColor=none;fillColor=none;align=left;verticalAlign=top;spacingLeft=4;spacingRight=4;overflow=hidden;rotatable=0;points=[[0,0.5],[1,0.5]];portConstraint=eastwest;" parent="287" vertex="1"><mxGeometry y="26" width="160" height="54" as="geometry"/></mxCell><mxCell id="289" value="" style="line;strokeWidth=1;fillColor=none;align=left;verticalAlign=middle;spacingTop=-1;spacingLeft=3;spacingRight=3;rotatable=0;labelPosition=right;points=[];portConstraint=eastwest;" parent="287" vertex="1"><mxGeometry y="80" width="160" height="8" as="geometry"/></mxCell><mxCell id="294" value="&lt;h1&gt;widget builders&lt;/h1&gt;&lt;div&gt;На основании полученных параметров&lt;/div&gt;&lt;div&gt;решают, какой подкласс соответствующего виджета выбрать для создания, и наделяют экземпляр виджета полученными параметрами.&lt;/div&gt;" style="text;html=1;strokeColor=none;fillColor=none;spacing=5;spacingTop=-20;whiteSpace=wrap;overflow=hidden;rounded=0;" parent="WIyWlLk6GJQsqaUBKTNV-1" vertex="1"><mxGeometry x="-360" y="487" width="237" height="129" as="geometry"/></mxCell><mxCell id="295" value="UserInfo" style="swimlane;fontStyle=1;align=center;verticalAlign=top;childLayout=stackLayout;horizontal=1;startSize=26;horizontalStack=0;resizeParent=1;resizeParentMax=0;resizeLast=0;collapsible=1;marginBottom=0;" parent="WIyWlLk6GJQsqaUBKTNV-1" vertex="1"><mxGeometry x="817" y="1764.5" width="183" height="104" as="geometry"/></mxCell><mxCell id="296" value="+ user_id: int&#10;+ formatter: TextInserter" style="text;strokeColor=none;fillColor=none;align=left;verticalAlign=top;spacingLeft=4;spacingRight=4;overflow=hidden;rotatable=0;points=[[0,0.5],[1,0.5]];portConstraint=eastwest;" parent="295" vertex="1"><mxGeometry y="26" width="183" height="44" as="geometry"/></mxCell><mxCell id="297" value="" style="line;strokeWidth=1;fillColor=none;align=left;verticalAlign=middle;spacingTop=-1;spacingLeft=3;spacingRight=3;rotatable=0;labelPosition=right;points=[];portConstraint=eastwest;" parent="295" vertex="1"><mxGeometry y="70" width="183" height="8" as="geometry"/></mxCell><mxCell id="298" value="+ get_user_info(): Dict[str, str]" style="text;strokeColor=none;fillColor=none;align=left;verticalAlign=top;spacingLeft=4;spacingRight=4;overflow=hidden;rotatable=0;points=[[0,0.5],[1,0.5]];portConstraint=eastwest;fontStyle=4" parent="295" vertex="1"><mxGeometry y="78" width="183" height="26" as="geometry"/></mxCell><mxCell id="309" value="&lt;h1&gt;RatingHandler&lt;/h1&gt;&lt;p&gt;хранит информацию об очках для каждого виджета Rating и обновляет её.&amp;nbsp;&lt;/p&gt;&lt;p&gt;RatingHandler хранит словарь ratings, где ключ - период рейтинга, а значение - список информации об участниках.&lt;/p&gt;&lt;p&gt;Раз в N секунд RatingHandler запускает обновление всех рейтингов rating_info. Т.е. проверяет, не надо ли сбросить рейтинг и обновляет очки.&lt;/p&gt;" style="text;html=1;strokeColor=none;fillColor=none;spacing=5;spacingTop=-20;whiteSpace=wrap;overflow=hidden;rounded=0;" parent="WIyWlLk6GJQsqaUBKTNV-1" vertex="1"><mxGeometry x="-1010" y="2490" width="400" height="180" as="geometry"/></mxCell><mxCell id="311" value="RatingInfo" style="swimlane;fontStyle=1;align=center;verticalAlign=top;childLayout=stackLayout;horizontal=1;startSize=26;horizontalStack=0;resizeParent=1;resizeParentMax=0;resizeLast=0;collapsible=1;marginBottom=0;rounded=0;shadow=0;glass=0;sketch=0;" parent="WIyWlLk6GJQsqaUBKTNV-1" vertex="1"><mxGeometry x="940" y="2772" width="200" height="144" as="geometry"/></mxCell><mxCell id="312" value="+ period: str&#10;+ points: Dict[int, EasyMemberInfo]&#10;+ point_formula: str&#10;+ ban_list: List[int]" style="text;strokeColor=none;fillColor=none;align=left;verticalAlign=top;spacingLeft=4;spacingRight=4;overflow=hidden;rotatable=0;points=[[0,0.5],[1,0.5]];portConstraint=eastwest;rounded=0;shadow=0;glass=0;sketch=0;" parent="311" vertex="1"><mxGeometry y="26" width="200" height="84" as="geometry"/></mxCell><mxCell id="313" value="" style="line;strokeWidth=1;fillColor=none;align=left;verticalAlign=middle;spacingTop=-1;spacingLeft=3;spacingRight=3;rotatable=0;labelPosition=right;points=[];portConstraint=eastwest;rounded=0;shadow=0;glass=0;sketch=0;" parent="311" vertex="1"><mxGeometry y="110" width="200" height="8" as="geometry"/></mxCell><mxCell id="314" value="+ draw(surface) -&gt; Image" style="text;strokeColor=none;fillColor=none;align=left;verticalAlign=top;spacingLeft=4;spacingRight=4;overflow=hidden;rotatable=0;points=[[0,0.5],[1,0.5]];portConstraint=eastwest;rounded=0;shadow=0;glass=0;sketch=0;" parent="311" vertex="1"><mxGeometry y="118" width="200" height="26" as="geometry"/></mxCell><mxCell id="317" value="EasyMemberInfo" style="swimlane;fontStyle=1;align=center;verticalAlign=top;childLayout=stackLayout;horizontal=1;startSize=26;horizontalStack=0;resizeParent=1;resizeParentMax=0;resizeLast=0;collapsible=1;marginBottom=0;rounded=0;shadow=0;glass=0;sketch=0;" parent="WIyWlLk6GJQsqaUBKTNV-1" vertex="1"><mxGeometry x="645" y="2772" width="180" height="148" as="geometry"/></mxCell><mxCell id="318" value="+ points: int&#10;+ post_likes: int&#10;+ comment_likes: int&#10;+ post_comments: int&#10;+ reposts: int&#10;+ posts: int&#10;+ donates: int" style="text;strokeColor=none;fillColor=none;align=left;verticalAlign=top;spacingLeft=4;spacingRight=4;overflow=hidden;rotatable=0;points=[[0,0.5],[1,0.5]];portConstraint=eastwest;rounded=0;shadow=0;glass=0;sketch=0;" parent="317" vertex="1"><mxGeometry y="26" width="180" height="114" as="geometry"/></mxCell><mxCell id="319" value="" style="line;strokeWidth=1;fillColor=none;align=left;verticalAlign=middle;spacingTop=-1;spacingLeft=3;spacingRight=3;rotatable=0;labelPosition=right;points=[];portConstraint=eastwest;rounded=0;shadow=0;glass=0;sketch=0;" parent="317" vertex="1"><mxGeometry y="140" width="180" height="8" as="geometry"/></mxCell><mxCell id="324" value="&lt;h1&gt;DynamicCover&lt;/h1&gt;&lt;div&gt;Принимает информацию из двух файлов: main_config, куда записаны токен, шв группы, id приложения и др.; cover_config, куда записано, как и какие виджеты должны отображаться&lt;/div&gt;&lt;div&gt;&lt;br&gt;&lt;/div&gt;&lt;div&gt;DynamicCover создаёт виджеты и запускает основной процесс отрисовки&lt;/div&gt;" style="text;html=1;strokeColor=none;fillColor=none;spacing=5;spacingTop=-20;whiteSpace=wrap;overflow=hidden;rounded=0;" parent="WIyWlLk6GJQsqaUBKTNV-1" vertex="1"><mxGeometry x="-1360" y="440" width="230" height="180" as="geometry"/></mxCell><mxCell id="340" value="" style="endArrow=diamondThin;endFill=1;endSize=24;html=1;rounded=0;" edge="1" parent="WIyWlLk6GJQsqaUBKTNV-1" source="4" target="0"><mxGeometry width="160" relative="1" as="geometry"><mxPoint x="-655" y="871" as="sourcePoint"/><mxPoint x="-595" y="741" as="targetPoint"/></mxGeometry></mxCell><mxCell id="358" value="1" style="edgeLabel;html=1;align=center;verticalAlign=middle;resizable=0;points=[];" vertex="1" connectable="0" parent="340"><mxGeometry x="-0.5904" y="2" relative="1" as="geometry"><mxPoint x="12" y="4" as="offset"/></mxGeometry></mxCell><mxCell id="348" value="" style="endArrow=diamondThin;endFill=1;endSize=24;html=1;rounded=0;strokeWidth=1;" edge="1" parent="WIyWlLk6GJQsqaUBKTNV-1" source="10" target="0"><mxGeometry width="160" relative="1" as="geometry"><mxPoint x="-935" y="621" as="sourcePoint"/><mxPoint x="-775" y="621" as="targetPoint"/></mxGeometry></mxCell><mxCell id="359" value="1" style="edgeLabel;html=1;align=center;verticalAlign=middle;resizable=0;points=[];" vertex="1" connectable="0" parent="348"><mxGeometry x="-0.8667" y="1" relative="1" as="geometry"><mxPoint x="-6" y="9" as="offset"/></mxGeometry></mxCell><mxCell id="349" value="" style="endArrow=open;endFill=1;endSize=12;html=1;rounded=0;strokeWidth=1;entryX=0.12;entryY=1.001;entryDx=0;entryDy=0;entryPerimeter=0;" edge="1" parent="WIyWlLk6GJQsqaUBKTNV-1" source="10" target="338"><mxGeometry width="160" relative="1" as="geometry"><mxPoint x="-440" y="730" as="sourcePoint"/><mxPoint x="-310" y="760" as="targetPoint"/></mxGeometry></mxCell><mxCell id="350" value="use" style="edgeLabel;html=1;align=center;verticalAlign=middle;resizable=0;points=[];" vertex="1" connectable="0" parent="349"><mxGeometry x="-0.1621" y="-1" relative="1" as="geometry"><mxPoint x="7" y="-11" as="offset"/></mxGeometry></mxCell><mxCell id="352" value="" style="endArrow=block;dashed=1;endFill=0;endSize=12;html=1;rounded=0;strokeWidth=1;" edge="1" parent="WIyWlLk6GJQsqaUBKTNV-1" source="135" target="113"><mxGeometry width="160" relative="1" as="geometry"><mxPoint x="-40" y="729" as="sourcePoint"/><mxPoint x="120" y="729" as="targetPoint"/><Array as="points"><mxPoint x="130" y="680"/></Array></mxGeometry></mxCell><mxCell id="382" value="realize" style="edgeLabel;html=1;align=center;verticalAlign=middle;resizable=0;points=[];" vertex="1" connectable="0" parent="352"><mxGeometry x="0.0246" y="1" relative="1" as="geometry"><mxPoint as="offset"/></mxGeometry></mxCell><mxCell id="353" value="" style="endArrow=block;dashed=1;endFill=0;endSize=12;html=1;rounded=0;strokeWidth=1;" edge="1" parent="WIyWlLk6GJQsqaUBKTNV-1" source="132" target="113"><mxGeometry width="160" relative="1" as="geometry"><mxPoint x="-35.71428571428578" y="729" as="sourcePoint"/><mxPoint x="90.36319612590796" y="602" as="targetPoint"/><Array as="points"><mxPoint x="130" y="681"/></Array></mxGeometry></mxCell><mxCell id="379" value="realize" style="edgeLabel;html=1;align=center;verticalAlign=middle;resizable=0;points=[];" vertex="1" connectable="0" parent="353"><mxGeometry x="-0.6133" y="-2" relative="1" as="geometry"><mxPoint as="offset"/></mxGeometry></mxCell><mxCell id="354" value="" style="endArrow=block;dashed=1;endFill=0;endSize=12;html=1;rounded=0;strokeWidth=1;" edge="1" parent="WIyWlLk6GJQsqaUBKTNV-1" source="117" target="113"><mxGeometry width="160" relative="1" as="geometry"><mxPoint x="-41.55172413793116" y="799" as="sourcePoint"/><mxPoint x="103.24863883847547" y="602" as="targetPoint"/><Array as="points"><mxPoint x="130" y="885"/></Array></mxGeometry></mxCell><mxCell id="384" value="realize" style="edgeLabel;html=1;align=center;verticalAlign=middle;resizable=0;points=[];" vertex="1" connectable="0" parent="354"><mxGeometry x="-0.5691" y="2" relative="1" as="geometry"><mxPoint x="40" y="-12" as="offset"/></mxGeometry></mxCell><mxCell id="355" value="realize" style="endArrow=block;dashed=1;endFill=0;endSize=12;html=1;rounded=0;strokeWidth=1;" edge="1" parent="WIyWlLk6GJQsqaUBKTNV-1" source="129" target="113"><mxGeometry x="-0.5388" y="9" width="160" relative="1" as="geometry"><mxPoint x="-47.39446870451229" y="866" as="sourcePoint"/><mxPoint x="110.16011644832633" y="602" as="targetPoint"/><Array as="points"><mxPoint x="130" y="859"/></Array><mxPoint as="offset"/></mxGeometry></mxCell><mxCell id="356" value="" style="endArrow=block;dashed=1;endFill=0;endSize=12;html=1;rounded=0;strokeWidth=1;" edge="1" parent="WIyWlLk6GJQsqaUBKTNV-1" source="126" target="113"><mxGeometry width="160" relative="1" as="geometry"><mxPoint x="-50.7091346153843" y="939" as="sourcePoint"/><mxPoint x="115.36057692307713" y="602" as="targetPoint"/><Array as="points"><mxPoint x="130" y="939"/></Array></mxGeometry></mxCell><mxCell id="378" value="realize" style="edgeLabel;html=1;align=center;verticalAlign=middle;resizable=0;points=[];" vertex="1" connectable="0" parent="356"><mxGeometry x="-0.2615" y="-1" relative="1" as="geometry"><mxPoint x="-99" y="-10" as="offset"/></mxGeometry></mxCell><mxCell id="351" value="realize" style="endArrow=block;dashed=1;endFill=0;endSize=12;html=1;rounded=0;strokeWidth=1;" edge="1" parent="WIyWlLk6GJQsqaUBKTNV-1" source="156" target="113"><mxGeometry width="160" relative="1" as="geometry"><mxPoint x="-60" y="639" as="sourcePoint"/><mxPoint x="100" y="639" as="targetPoint"/><Array as="points"/></mxGeometry></mxCell><mxCell id="357" value="&lt;h1&gt;CoverDrawing&lt;br&gt;&lt;/h1&gt;&lt;div&gt;Хранит все виджеты и отрисовывает группы виджетов&lt;/div&gt;" style="text;html=1;strokeColor=none;fillColor=none;spacing=5;spacingTop=-20;whiteSpace=wrap;overflow=hidden;rounded=0;" vertex="1" parent="WIyWlLk6GJQsqaUBKTNV-1"><mxGeometry x="-1338.5" y="671" width="187" height="92" as="geometry"/></mxCell><mxCell id="361" value="UserInfoBuilder" style="swimlane;fontStyle=1;align=center;verticalAlign=top;childLayout=stackLayout;horizontal=1;startSize=23;horizontalStack=0;resizeParent=1;resizeParentMax=0;resizeLast=0;collapsible=1;marginBottom=0;rounded=0;shadow=0;glass=0;sketch=0;" vertex="1" parent="WIyWlLk6GJQsqaUBKTNV-1"><mxGeometry x="310" y="748" width="160" height="57" as="geometry"/></mxCell><mxCell id="362" value="" style="line;strokeWidth=1;fillColor=none;align=left;verticalAlign=middle;spacingTop=-1;spacingLeft=3;spacingRight=3;rotatable=0;labelPosition=right;points=[];portConstraint=eastwest;rounded=0;shadow=0;glass=0;sketch=0;" vertex="1" parent="361"><mxGeometry y="23" width="160" height="8" as="geometry"/></mxCell><mxCell id="363" value="+ create(**kwargs): UserInfo" style="text;strokeColor=none;fillColor=none;align=left;verticalAlign=top;spacingLeft=4;spacingRight=4;overflow=hidden;rotatable=0;points=[[0,0.5],[1,0.5]];portConstraint=eastwest;rounded=0;shadow=0;glass=0;sketch=0;" vertex="1" parent="361"><mxGeometry y="31" width="160" height="26" as="geometry"/></mxCell><mxCell id="364" value="" style="endArrow=block;dashed=1;endFill=0;endSize=12;html=1;rounded=0;strokeWidth=1;" edge="1" parent="WIyWlLk6GJQsqaUBKTNV-1" source="361" target="113"><mxGeometry width="160" relative="1" as="geometry"><mxPoint x="80" y="679.4285714285716" as="sourcePoint"/><mxPoint x="140" y="602" as="targetPoint"/><Array as="points"><mxPoint x="130" y="780"/></Array></mxGeometry></mxCell><mxCell id="381" value="realize" style="edgeLabel;html=1;align=center;verticalAlign=middle;resizable=0;points=[];" vertex="1" connectable="0" parent="364"><mxGeometry x="-0.6709" y="-2" relative="1" as="geometry"><mxPoint y="-7" as="offset"/></mxGeometry></mxCell><mxCell id="365" value="RatingPlaceBuilder" style="swimlane;fontStyle=1;align=center;verticalAlign=top;childLayout=stackLayout;horizontal=1;startSize=25;horizontalStack=0;resizeParent=1;resizeParentMax=0;resizeLast=0;collapsible=1;marginBottom=0;rounded=0;shadow=0;glass=0;sketch=0;" vertex="1" parent="WIyWlLk6GJQsqaUBKTNV-1"><mxGeometry x="-240" y="748" width="160" height="59" as="geometry"/></mxCell><mxCell id="366" value="" style="line;strokeWidth=1;fillColor=none;align=left;verticalAlign=middle;spacingTop=-1;spacingLeft=3;spacingRight=3;rotatable=0;labelPosition=right;points=[];portConstraint=eastwest;rounded=0;shadow=0;glass=0;sketch=0;" vertex="1" parent="365"><mxGeometry y="25" width="160" height="8" as="geometry"/></mxCell><mxCell id="367" value="+ create(**kwargs): Rating" style="text;strokeColor=none;fillColor=none;align=left;verticalAlign=top;spacingLeft=4;spacingRight=4;overflow=hidden;rotatable=0;points=[[0,0.5],[1,0.5]];portConstraint=eastwest;rounded=0;shadow=0;glass=0;sketch=0;" vertex="1" parent="365"><mxGeometry y="33" width="160" height="26" as="geometry"/></mxCell><mxCell id="371" value="use" style="endArrow=open;endFill=1;endSize=12;html=1;rounded=0;strokeWidth=1;" edge="1" parent="WIyWlLk6GJQsqaUBKTNV-1" source="135" target="365"><mxGeometry width="160" relative="1" as="geometry"><mxPoint x="-70" y="670" as="sourcePoint"/><mxPoint x="90" y="670" as="targetPoint"/></mxGeometry></mxCell><mxCell id="374" value="" style="endArrow=block;dashed=1;endFill=0;endSize=12;html=1;rounded=0;strokeWidth=1;" edge="1" parent="WIyWlLk6GJQsqaUBKTNV-1" source="365" target="113"><mxGeometry width="160" relative="1" as="geometry"><mxPoint x="87.03777335984114" y="774" as="sourcePoint"/><mxPoint x="128.07157057654058" y="602" as="targetPoint"/><Array as="points"><mxPoint x="130" y="778"/></Array></mxGeometry></mxCell><mxCell id="380" value="realize" style="edgeLabel;html=1;align=center;verticalAlign=middle;resizable=0;points=[];" vertex="1" connectable="0" parent="374"><mxGeometry x="-0.3973" y="2" relative="1" as="geometry"><mxPoint as="offset"/></mxGeometry></mxCell><mxCell id="376" value="use" style="endArrow=open;endFill=1;endSize=12;html=1;rounded=0;strokeWidth=1;" edge="1" parent="WIyWlLk6GJQsqaUBKTNV-1" source="135" target="156"><mxGeometry x="-0.9037" y="-10" width="160" relative="1" as="geometry"><mxPoint x="-150" y="719" as="sourcePoint"/><mxPoint x="-150" y="758" as="targetPoint"/><Array as="points"><mxPoint x="-160" y="630"/><mxPoint x="410" y="630"/></Array><mxPoint as="offset"/></mxGeometry></mxCell><mxCell id="377" value="use" style="endArrow=open;endFill=1;endSize=12;html=1;rounded=0;strokeWidth=1;exitX=0.875;exitY=0;exitDx=0;exitDy=0;exitPerimeter=0;entryX=0.134;entryY=1.046;entryDx=0;entryDy=0;entryPerimeter=0;" edge="1" parent="WIyWlLk6GJQsqaUBKTNV-1" source="365" target="134"><mxGeometry x="-0.3673" y="10" width="160" relative="1" as="geometry"><mxPoint x="-70" y="682.5588235294117" as="sourcePoint"/><mxPoint x="300" y="603.4285714285711" as="targetPoint"/><Array as="points"><mxPoint x="-100" y="730"/><mxPoint x="330" y="730"/></Array><mxPoint as="offset"/></mxGeometry></mxCell><mxCell id="383" value="use" style="endArrow=open;endFill=1;endSize=12;html=1;rounded=0;strokeWidth=1;" edge="1" parent="WIyWlLk6GJQsqaUBKTNV-1" source="132" target="361"><mxGeometry width="160" relative="1" as="geometry"><mxPoint x="-149.99999999999955" y="719" as="sourcePoint"/><mxPoint x="-149.99999999999955" y="758" as="targetPoint"/></mxGeometry></mxCell><mxCell id="386" value="use" style="endArrow=open;endFill=1;endSize=12;html=1;rounded=0;strokeWidth=1;" edge="1" parent="WIyWlLk6GJQsqaUBKTNV-1" source="132" target="117"><mxGeometry width="160" relative="1" as="geometry"><mxPoint x="400" y="719" as="sourcePoint"/><mxPoint x="400" y="758" as="targetPoint"/><Array as="points"><mxPoint x="510" y="681"/><mxPoint x="510" y="881"/></Array></mxGeometry></mxCell><mxCell id="387" value="use" style="endArrow=open;endFill=1;endSize=12;html=1;rounded=0;strokeWidth=1;" edge="1" parent="WIyWlLk6GJQsqaUBKTNV-1" source="129" target="156"><mxGeometry x="-0.9254" y="-9" width="160" relative="1" as="geometry"><mxPoint x="-149.99999999999955" y="660" as="sourcePoint"/><mxPoint x="420" y="607" as="targetPoint"/><Array as="points"><mxPoint x="-320" y="859"/><mxPoint x="-320" y="630"/><mxPoint x="410" y="630"/></Array><mxPoint as="offset"/></mxGeometry></mxCell><mxCell id="388" value="use" style="endArrow=open;endFill=1;endSize=12;html=1;rounded=0;strokeWidth=1;" edge="1" parent="WIyWlLk6GJQsqaUBKTNV-1" source="126" target="156"><mxGeometry x="-0.9254" y="-9" width="160" relative="1" as="geometry"><mxPoint x="-230" y="869" as="sourcePoint"/><mxPoint x="420" y="607" as="targetPoint"/><Array as="points"><mxPoint x="-320" y="939"/><mxPoint x="-320" y="630"/><mxPoint x="410" y="630"/></Array><mxPoint as="offset"/></mxGeometry></mxCell><mxCell id="390" value="Extends" style="endArrow=block;endSize=16;endFill=0;html=1;rounded=0;strokeWidth=1;" edge="1" parent="WIyWlLk6GJQsqaUBKTNV-1" source="17" target="16"><mxGeometry width="160" relative="1" as="geometry"><mxPoint x="-410" y="1402.5" as="sourcePoint"/><mxPoint x="-250" y="1402.5" as="targetPoint"/></mxGeometry></mxCell><mxCell id="391" value="Extends" style="endArrow=block;endSize=16;endFill=0;html=1;rounded=0;strokeWidth=1;" edge="1" parent="WIyWlLk6GJQsqaUBKTNV-1" source="19" target="17"><mxGeometry width="160" relative="1" as="geometry"><mxPoint x="-315" y="1513.586956521739" as="sourcePoint"/><mxPoint x="155" y="1329.673913043478" as="targetPoint"/></mxGeometry></mxCell><mxCell id="392" value="Extends" style="endArrow=block;endSize=16;endFill=0;html=1;rounded=0;strokeWidth=1;" edge="1" parent="WIyWlLk6GJQsqaUBKTNV-1" source="23" target="17"><mxGeometry width="160" relative="1" as="geometry"><mxPoint x="-642.7548209366387" y="1882.5" as="sourcePoint"/><mxPoint x="-484.35261707988957" y="1632.5" as="targetPoint"/></mxGeometry></mxCell><mxCell id="393" value="Extends" style="endArrow=block;endSize=16;endFill=0;html=1;rounded=0;strokeWidth=1;" edge="1" parent="WIyWlLk6GJQsqaUBKTNV-1" source="250" target="17"><mxGeometry width="160" relative="1" as="geometry"><mxPoint x="-642.7548209366387" y="1882.5" as="sourcePoint"/><mxPoint x="-484.35261707988957" y="1632.5" as="targetPoint"/></mxGeometry></mxCell><mxCell id="395" value="Extends" style="endArrow=block;endSize=16;endFill=0;html=1;rounded=0;strokeWidth=1;" edge="1" parent="WIyWlLk6GJQsqaUBKTNV-1" source="29" target="250"><mxGeometry width="160" relative="1" as="geometry"><mxPoint x="-452.7548209366387" y="1892.5" as="sourcePoint"/><mxPoint x="-294.35261707988957" y="1642.5" as="targetPoint"/></mxGeometry></mxCell><mxCell id="396" value="Extends" style="endArrow=block;endSize=16;endFill=0;html=1;rounded=0;strokeWidth=1;" edge="1" parent="WIyWlLk6GJQsqaUBKTNV-1" source="33" target="250"><mxGeometry width="160" relative="1" as="geometry"><mxPoint x="-371.1999999999998" y="2172.5" as="sourcePoint"/><mxPoint x="-313.60000000000036" y="2112.5" as="targetPoint"/></mxGeometry></mxCell><mxCell id="397" value="Extends" style="endArrow=block;endSize=16;endFill=0;html=1;rounded=0;strokeWidth=1;" edge="1" parent="WIyWlLk6GJQsqaUBKTNV-1" source="29" target="19"><mxGeometry width="160" relative="1" as="geometry"><mxPoint x="-371.1999999999998" y="2172.5" as="sourcePoint"/><mxPoint x="-313.60000000000036" y="2112.5" as="targetPoint"/></mxGeometry></mxCell><mxCell id="398" value="Extends" style="endArrow=block;endSize=16;endFill=0;html=1;rounded=0;strokeWidth=1;" edge="1" parent="WIyWlLk6GJQsqaUBKTNV-1" source="33" target="23"><mxGeometry width="160" relative="1" as="geometry"><mxPoint x="-408.9887640449433" y="2172.5" as="sourcePoint"/><mxPoint x="-467.1161048689137" y="1978.5" as="targetPoint"/></mxGeometry></mxCell><mxCell id="399" value="Extends" style="endArrow=block;endSize=16;endFill=0;html=1;rounded=0;strokeWidth=1;" edge="1" parent="WIyWlLk6GJQsqaUBKTNV-1" source="259" target="17"><mxGeometry width="160" relative="1" as="geometry"><mxPoint x="-642.7548209366387" y="1882.5" as="sourcePoint"/><mxPoint x="-484.35261707988957" y="1632.5" as="targetPoint"/></mxGeometry></mxCell><mxCell id="401" value="Extends" style="endArrow=block;endSize=16;endFill=0;html=1;rounded=0;strokeWidth=1;" edge="1" parent="WIyWlLk6GJQsqaUBKTNV-1" source="46" target="16"><mxGeometry width="160" relative="1" as="geometry"><mxPoint x="-150" y="1512.6904761904761" as="sourcePoint"/><mxPoint x="155" y="1344.7952380952383" as="targetPoint"/></mxGeometry></mxCell><mxCell id="403" value="Extends" style="endArrow=block;endSize=16;endFill=0;html=1;rounded=0;strokeWidth=1;" edge="1" parent="WIyWlLk6GJQsqaUBKTNV-1" source="275" target="46"><mxGeometry width="160" relative="1" as="geometry"><mxPoint x="-94.52873563218373" y="2166.5" as="sourcePoint"/><mxPoint x="-47.70881226053643" y="1978.5" as="targetPoint"/></mxGeometry></mxCell><mxCell id="404" value="Extends" style="endArrow=block;endSize=16;endFill=0;html=1;rounded=0;strokeWidth=1;" edge="1" parent="WIyWlLk6GJQsqaUBKTNV-1" source="268" target="275"><mxGeometry width="160" relative="1" as="geometry"><mxPoint x="311.5350089766607" y="1878.5" as="sourcePoint"/><mxPoint x="279.62298025134623" y="1760" as="targetPoint"/></mxGeometry></mxCell><mxCell id="405" value="Extends" style="endArrow=block;endSize=16;endFill=0;html=1;rounded=0;strokeWidth=1;" edge="1" parent="WIyWlLk6GJQsqaUBKTNV-1" source="49" target="275"><mxGeometry width="160" relative="1" as="geometry"><mxPoint x="199.27648578811386" y="2060" as="sourcePoint"/><mxPoint x="277.1963824289405" y="1978.5" as="targetPoint"/></mxGeometry></mxCell><mxCell id="407" value="1" style="endArrow=diamondThin;endFill=0;endSize=24;html=1;rounded=0;strokeWidth=1;" edge="1" parent="WIyWlLk6GJQsqaUBKTNV-1" source="275" target="287"><mxGeometry x="-0.9961" y="12" width="160" relative="1" as="geometry"><mxPoint x="470" y="1820" as="sourcePoint"/><mxPoint x="630" y="1820" as="targetPoint"/><mxPoint as="offset"/></mxGeometry></mxCell><mxCell id="408" value="Extends" style="endArrow=block;endSize=16;endFill=0;html=1;rounded=0;strokeWidth=1;" edge="1" parent="WIyWlLk6GJQsqaUBKTNV-1" source="287" target="16"><mxGeometry width="160" relative="1" as="geometry"><mxPoint x="250.00000000000045" y="1540" as="sourcePoint"/><mxPoint x="250.00000000000045" y="1392.5" as="targetPoint"/></mxGeometry></mxCell><mxCell id="409" value="1" style="endArrow=diamondThin;endFill=0;endSize=24;html=1;rounded=0;strokeWidth=1;" edge="1" parent="WIyWlLk6GJQsqaUBKTNV-1" source="275" target="60"><mxGeometry x="-0.9774" y="7" width="160" relative="1" as="geometry"><mxPoint x="297.8955007256891" y="1878.5" as="sourcePoint"/><mxPoint x="537.8519593613937" y="1628" as="targetPoint"/><mxPoint as="offset"/></mxGeometry></mxCell><mxCell id="410" value="Extends" style="endArrow=block;endSize=16;endFill=0;html=1;rounded=0;strokeWidth=1;" edge="1" parent="WIyWlLk6GJQsqaUBKTNV-1" source="60" target="16"><mxGeometry width="160" relative="1" as="geometry"><mxPoint x="530.1886792452833" y="1540" as="sourcePoint"/><mxPoint x="345" y="1376.4166666666665" as="targetPoint"/></mxGeometry></mxCell><mxCell id="411" value="Extends" style="endArrow=block;endSize=16;endFill=0;html=1;rounded=0;strokeWidth=1;" edge="1" parent="WIyWlLk6GJQsqaUBKTNV-1" source="70" target="16"><mxGeometry width="160" relative="1" as="geometry"><mxPoint x="714.9999999999991" y="1541.211009174312" as="sourcePoint"/><mxPoint x="345" y="1343.3119266055046" as="targetPoint"/></mxGeometry></mxCell><mxCell id="412" value="Extends" style="endArrow=block;endSize=16;endFill=0;html=1;rounded=0;strokeWidth=1;" edge="1" parent="WIyWlLk6GJQsqaUBKTNV-1" source="295" target="275"><mxGeometry width="160" relative="1" as="geometry"><mxPoint x="334.9483204134367" y="2060" as="sourcePoint"/><mxPoint x="282.2997416020671" y="1978.5" as="targetPoint"/></mxGeometry></mxCell><mxCell id="413" value="1" style="endArrow=diamondThin;endFill=1;endSize=24;html=1;rounded=0;strokeWidth=1;" edge="1" parent="WIyWlLk6GJQsqaUBKTNV-1" source="295" target="70"><mxGeometry x="-0.8697" y="15" width="160" relative="1" as="geometry"><mxPoint x="510" y="1700" as="sourcePoint"/><mxPoint x="670" y="1700" as="targetPoint"/><mxPoint as="offset"/></mxGeometry></mxCell><mxCell id="414" value="Extends" style="endArrow=block;endSize=16;endFill=0;html=1;rounded=0;strokeWidth=1;" edge="1" parent="WIyWlLk6GJQsqaUBKTNV-1" source="81" target="16"><mxGeometry width="160" relative="1" as="geometry"><mxPoint x="939.9999999999991" y="1551.4740259740256" as="sourcePoint"/><mxPoint x="345" y="1328.155844155844" as="targetPoint"/></mxGeometry></mxCell><mxCell id="415" value="Extends" style="endArrow=block;endSize=16;endFill=0;html=1;rounded=0;strokeWidth=1;" edge="1" parent="WIyWlLk6GJQsqaUBKTNV-1" source="100" target="16"><mxGeometry width="160" relative="1" as="geometry"><mxPoint x="1200" y="1541.418269230769" as="sourcePoint"/><mxPoint x="345" y="1317.3918269230771" as="targetPoint"/><Array as="points"><mxPoint x="1370" y="1410"/></Array></mxGeometry></mxCell><mxCell id="417" value="" style="endArrow=diamondThin;endFill=0;endSize=24;html=1;rounded=0;strokeWidth=1;" edge="1" parent="WIyWlLk6GJQsqaUBKTNV-1" source="275" target="81"><mxGeometry width="160" relative="1" as="geometry"><mxPoint x="329.10014513788065" y="1878.5" as="sourcePoint"/><mxPoint x="725.3918722786648" y="1628" as="targetPoint"/><Array as="points"><mxPoint x="1030" y="1910"/></Array></mxGeometry></mxCell><mxCell id="418" value="1" style="endArrow=diamondThin;endFill=0;endSize=24;html=1;rounded=0;strokeWidth=1;" edge="1" parent="WIyWlLk6GJQsqaUBKTNV-1" source="275" target="100"><mxGeometry x="-0.9839" y="-13" width="160" relative="1" as="geometry"><mxPoint x="350" y="1927.4240506329115" as="sourcePoint"/><mxPoint x="1237.1830985915494" y="1640" as="targetPoint"/><Array as="points"><mxPoint x="1070" y="1910"/></Array><mxPoint as="offset"/></mxGeometry></mxCell><mxCell id="419" value="1" style="endArrow=diamondThin;endFill=0;endSize=24;html=1;rounded=0;strokeWidth=1;" edge="1" parent="WIyWlLk6GJQsqaUBKTNV-1" source="70" target="100"><mxGeometry x="-0.9567" y="10" width="160" relative="1" as="geometry"><mxPoint x="350" y="1927.4240506329115" as="sourcePoint"/><mxPoint x="1237.1830985915485" y="1640" as="targetPoint"/><Array as="points"><mxPoint x="1010" y="1750"/><mxPoint x="1530" y="1740"/></Array><mxPoint as="offset"/></mxGeometry></mxCell><mxCell id="420" value="" style="endArrow=diamondThin;endFill=1;endSize=24;html=1;rounded=0;strokeWidth=1;" edge="1" parent="WIyWlLk6GJQsqaUBKTNV-1" source="100" target="81"><mxGeometry width="160" relative="1" as="geometry"><mxPoint x="1360" y="1460" as="sourcePoint"/><mxPoint x="1520" y="1460" as="targetPoint"/></mxGeometry></mxCell><mxCell id="421" value="0...*" style="edgeLabel;html=1;align=center;verticalAlign=middle;resizable=0;points=[];" vertex="1" connectable="0" parent="420"><mxGeometry x="-0.5468" y="-2" relative="1" as="geometry"><mxPoint y="-7" as="offset"/></mxGeometry></mxCell><mxCell id="424" value="&lt;&lt;utility&gt;&gt;&#10;TimeTools" style="swimlane;fontStyle=1;childLayout=stackLayout;horizontal=1;startSize=30;fillColor=none;horizontalStack=0;resizeParent=1;resizeParentMax=0;resizeLast=0;collapsible=1;marginBottom=0;" vertex="1" parent="WIyWlLk6GJQsqaUBKTNV-1"><mxGeometry x="-1450" y="1182.5" width="270" height="100" as="geometry"/></mxCell><mxCell id="425" value="+ format_time(dtime: datetime): Dict[str, int]&#10;+ shift_time(dtime: datetime, shift): datetime&#10;+ get_period_interval(period: str): Tuple[int, int]" style="text;strokeColor=none;fillColor=none;align=left;verticalAlign=top;spacingLeft=4;spacingRight=4;overflow=hidden;rotatable=0;points=[[0,0.5],[1,0.5]];portConstraint=eastwest;fontStyle=4" vertex="1" parent="424"><mxGeometry y="30" width="270" height="70" as="geometry"/></mxCell><mxCell id="433" value="&lt;p style=&quot;margin: 0px ; margin-top: 4px ; text-align: center&quot;&gt;&lt;b&gt;&lt;i&gt;Listener&lt;/i&gt;&lt;/b&gt;&lt;/p&gt;&lt;hr size=&quot;1&quot;&gt;&lt;p style=&quot;margin: 0px ; margin-left: 4px&quot;&gt;- subcribers: List[Subscriber]&lt;/p&gt;&lt;hr size=&quot;1&quot;&gt;&lt;p style=&quot;margin: 0px ; margin-left: 4px&quot;&gt;&lt;i&gt;+ listen(): void&lt;/i&gt;&lt;/p&gt;&lt;p style=&quot;margin: 0px ; margin-left: 4px&quot;&gt;+ subscribe(sub Subscriber): void&lt;/p&gt;&lt;p style=&quot;margin: 0px ; margin-left: 4px&quot;&gt;+ update_all(event): void&lt;/p&gt;" style="verticalAlign=top;align=left;overflow=fill;fontSize=12;fontFamily=Helvetica;html=1;" vertex="1" parent="WIyWlLk6GJQsqaUBKTNV-1"><mxGeometry x="-1480" y="2146.5" width="200" height="120" as="geometry"/></mxCell><mxCell id="439" value="Extends" style="endArrow=block;endSize=16;endFill=0;html=1;rounded=0;strokeWidth=1;" edge="1" parent="WIyWlLk6GJQsqaUBKTNV-1" source="90" target="433"><mxGeometry width="160" relative="1" as="geometry"><mxPoint x="-1370" y="2020" as="sourcePoint"/><mxPoint x="-1210" y="2020" as="targetPoint"/></mxGeometry></mxCell><mxCell id="441" value="&lt;&lt;singleton&gt;&gt;&#10;DonateListener" style="swimlane;fontStyle=1;align=center;verticalAlign=top;childLayout=stackLayout;horizontal=1;startSize=40;horizontalStack=0;resizeParent=1;resizeParentMax=0;resizeLast=0;collapsible=1;marginBottom=0;rounded=0;shadow=0;glass=0;sketch=0;" vertex="1" parent="WIyWlLk6GJQsqaUBKTNV-1"><mxGeometry x="-1560" y="1980" width="160" height="80" as="geometry"/></mxCell><mxCell id="442" value="" style="line;strokeWidth=1;fillColor=none;align=left;verticalAlign=middle;spacingTop=-1;spacingLeft=3;spacingRight=3;rotatable=0;labelPosition=right;points=[];portConstraint=eastwest;rounded=0;shadow=0;glass=0;sketch=0;" vertex="1" parent="441"><mxGeometry y="40" width="160" height="8" as="geometry"/></mxCell><mxCell id="443" value="+ listen(): void" style="text;strokeColor=none;fillColor=none;align=left;verticalAlign=top;spacingLeft=4;spacingRight=4;overflow=hidden;rotatable=0;points=[[0,0.5],[1,0.5]];portConstraint=eastwest;rounded=0;shadow=0;glass=0;sketch=0;" vertex="1" parent="441"><mxGeometry y="48" width="160" height="32" as="geometry"/></mxCell><mxCell id="444" value="Extends" style="endArrow=block;endSize=16;endFill=0;html=1;rounded=0;strokeWidth=1;" edge="1" parent="WIyWlLk6GJQsqaUBKTNV-1" source="441" target="433"><mxGeometry width="160" relative="1" as="geometry"><mxPoint x="-1172.4624624624626" y="2089.9999999999995" as="sourcePoint"/><mxPoint x="-1276.3063063063064" y="2156.5" as="targetPoint"/></mxGeometry></mxCell><mxCell id="446" value="" style="endArrow=diamondThin;endFill=1;endSize=24;html=1;rounded=0;strokeWidth=1;" edge="1" parent="WIyWlLk6GJQsqaUBKTNV-1" source="198" target="433"><mxGeometry width="160" relative="1" as="geometry"><mxPoint x="-1130" y="2230" as="sourcePoint"/><mxPoint x="-970" y="2230" as="targetPoint"/></mxGeometry></mxCell><mxCell id="447" value="0...*" style="edgeLabel;html=1;align=center;verticalAlign=middle;resizable=0;points=[];" vertex="1" connectable="0" parent="446"><mxGeometry x="-0.8202" y="1" relative="1" as="geometry"><mxPoint y="-12" as="offset"/></mxGeometry></mxCell><mxCell id="452" value="FormatterFunction" style="swimlane;fontStyle=1;align=center;verticalAlign=top;childLayout=stackLayout;horizontal=1;startSize=26;horizontalStack=0;resizeParent=1;resizeParentMax=0;resizeLast=0;collapsible=1;marginBottom=0;" vertex="1" parent="WIyWlLk6GJQsqaUBKTNV-1"><mxGeometry x="860.5" y="528" width="266" height="114" as="geometry"/></mxCell><mxCell id="453" value="- function: callable[any, Dict[str, any]]&#10;- args: List&#10;- kwargs: Dict" style="text;strokeColor=none;fillColor=none;align=left;verticalAlign=top;spacingLeft=4;spacingRight=4;overflow=hidden;rotatable=0;points=[[0,0.5],[1,0.5]];portConstraint=eastwest;" vertex="1" parent="452"><mxGeometry y="26" width="266" height="54" as="geometry"/></mxCell><mxCell id="454" value="" style="line;strokeWidth=1;fillColor=none;align=left;verticalAlign=middle;spacingTop=-1;spacingLeft=3;spacingRight=3;rotatable=0;labelPosition=right;points=[];portConstraint=eastwest;" vertex="1" parent="452"><mxGeometry y="80" width="266" height="8" as="geometry"/></mxCell><mxCell id="455" value="__call__(*args, **kwargs): Dict[str, any]" style="text;strokeColor=none;fillColor=none;align=left;verticalAlign=top;spacingLeft=4;spacingRight=4;overflow=hidden;rotatable=0;points=[[0,0.5],[1,0.5]];portConstraint=eastwest;" vertex="1" parent="452"><mxGeometry y="88" width="266" height="26" as="geometry"/></mxCell><mxCell id="456" value="" style="endArrow=diamondThin;endFill=1;endSize=24;html=1;rounded=0;strokeWidth=1;" edge="1" parent="WIyWlLk6GJQsqaUBKTNV-1" source="452" target="211"><mxGeometry width="160" relative="1" as="geometry"><mxPoint x="600" y="700" as="sourcePoint"/><mxPoint x="760" y="700" as="targetPoint"/></mxGeometry></mxCell><mxCell id="458" value="" style="endArrow=open;endFill=1;endSize=12;html=1;rounded=0;strokeWidth=1;" edge="1" parent="WIyWlLk6GJQsqaUBKTNV-1" source="338" target="422"><mxGeometry width="160" relative="1" as="geometry"><mxPoint x="-555" y="523.9644790741643" as="sourcePoint"/><mxPoint x="-360.9100000000003" y="523.9200000000001" as="targetPoint"/></mxGeometry></mxCell><mxCell id="459" value="use" style="edgeLabel;html=1;align=center;verticalAlign=middle;resizable=0;points=[];" vertex="1" connectable="0" parent="458"><mxGeometry x="-0.1621" y="-1" relative="1" as="geometry"><mxPoint x="7" y="-11" as="offset"/></mxGeometry></mxCell><mxCell id="460" value="" style="endArrow=open;endFill=1;endSize=12;html=1;rounded=0;strokeWidth=1;" edge="1" parent="WIyWlLk6GJQsqaUBKTNV-1" source="422" target="451"><mxGeometry width="160" relative="1" as="geometry"><mxPoint x="103.84200968522964" y="999.9999999999998" as="sourcePoint"/><mxPoint x="800" y="1040" as="targetPoint"/></mxGeometry></mxCell><mxCell id="461" value="use" style="edgeLabel;html=1;align=center;verticalAlign=middle;resizable=0;points=[];" vertex="1" connectable="0" parent="460"><mxGeometry x="-0.1621" y="-1" relative="1" as="geometry"><mxPoint x="7" y="-11" as="offset"/></mxGeometry></mxCell><mxCell id="462" value="" style="endArrow=open;endFill=1;endSize=12;html=1;rounded=0;strokeWidth=1;" edge="1" parent="WIyWlLk6GJQsqaUBKTNV-1" source="457" target="360"><mxGeometry width="160" relative="1" as="geometry"><mxPoint x="-555" y="523.964479074164" as="sourcePoint"/><mxPoint x="-360.90999999999985" y="523.9199999999994" as="targetPoint"/></mxGeometry></mxCell><mxCell id="463" value="use" style="edgeLabel;html=1;align=center;verticalAlign=middle;resizable=0;points=[];" vertex="1" connectable="0" parent="462"><mxGeometry x="-0.1621" y="-1" relative="1" as="geometry"><mxPoint x="7" y="-11" as="offset"/></mxGeometry></mxCell><mxCell id="464" value="" style="endArrow=open;endFill=1;endSize=12;html=1;rounded=0;strokeWidth=1;" edge="1" parent="WIyWlLk6GJQsqaUBKTNV-1" source="422" target="360"><mxGeometry width="160" relative="1" as="geometry"><mxPoint x="-545" y="533.964479074164" as="sourcePoint"/><mxPoint x="-350.90999999999985" y="533.9199999999994" as="targetPoint"/></mxGeometry></mxCell><mxCell id="465" value="use" style="edgeLabel;html=1;align=center;verticalAlign=middle;resizable=0;points=[];" vertex="1" connectable="0" parent="464"><mxGeometry x="-0.1621" y="-1" relative="1" as="geometry"><mxPoint x="7" y="-11" as="offset"/></mxGeometry></mxCell><mxCell id="467" value="" style="endArrow=block;dashed=1;endFill=0;endSize=12;html=1;rounded=0;strokeWidth=1;" edge="1" parent="WIyWlLk6GJQsqaUBKTNV-1" source="177" target="198"><mxGeometry width="160" relative="1" as="geometry"><mxPoint x="-1049.9999999999995" y="2517.637931034483" as="sourcePoint"/><mxPoint x="-839.9999999999995" y="2430" as="targetPoint"/><Array as="points"><mxPoint x="-970" y="2460"/></Array></mxGeometry></mxCell><mxCell id="468" value="realize" style="edgeLabel;html=1;align=center;verticalAlign=middle;resizable=0;points=[];" vertex="1" connectable="0" parent="467"><mxGeometry x="0.0246" y="1" relative="1" as="geometry"><mxPoint x="-109" y="104" as="offset"/></mxGeometry></mxCell><mxCell id="470" value="" style="endArrow=open;endFill=1;endSize=12;html=1;rounded=0;strokeWidth=1;" edge="1" parent="WIyWlLk6GJQsqaUBKTNV-1" source="422" target="449"><mxGeometry width="160" relative="1" as="geometry"><mxPoint x="-660" y="1561.9866071428569" as="sourcePoint"/><mxPoint x="-930" y="1529.4419642857147" as="targetPoint"/></mxGeometry></mxCell><mxCell id="471" value="use" style="edgeLabel;html=1;align=center;verticalAlign=middle;resizable=0;points=[];" vertex="1" connectable="0" parent="470"><mxGeometry x="-0.1621" y="-1" relative="1" as="geometry"><mxPoint x="7" y="-11" as="offset"/></mxGeometry></mxCell><mxCell id="472" value="" style="endArrow=open;endFill=1;endSize=12;html=1;rounded=0;strokeWidth=1;" edge="1" parent="WIyWlLk6GJQsqaUBKTNV-1" source="422" target="469"><mxGeometry width="160" relative="1" as="geometry"><mxPoint x="-660" y="2039.762611275965" as="sourcePoint"/><mxPoint x="-840" y="2093.175074183977" as="targetPoint"/></mxGeometry></mxCell><mxCell id="473" value="use" style="edgeLabel;html=1;align=center;verticalAlign=middle;resizable=0;points=[];" vertex="1" connectable="0" parent="472"><mxGeometry x="-0.1621" y="-1" relative="1" as="geometry"><mxPoint x="7" y="-11" as="offset"/></mxGeometry></mxCell><mxCell id="474" value="" style="endArrow=open;endFill=1;endSize=12;html=1;rounded=0;strokeWidth=1;" edge="1" parent="WIyWlLk6GJQsqaUBKTNV-1" source="469" target="360"><mxGeometry width="160" relative="1" as="geometry"><mxPoint x="-316.659751037344" y="2300.0000000000005" as="sourcePoint"/><mxPoint x="-650.6846473029045" y="2549.9999999999995" as="targetPoint"/><Array as="points"><mxPoint x="-1780" y="2540"/><mxPoint x="-1780" y="1920"/></Array></mxGeometry></mxCell><mxCell id="475" value="use" style="edgeLabel;html=1;align=center;verticalAlign=middle;resizable=0;points=[];" vertex="1" connectable="0" parent="474"><mxGeometry x="-0.1621" y="-1" relative="1" as="geometry"><mxPoint x="7" y="-11" as="offset"/></mxGeometry></mxCell><mxCell id="476" value="" style="endArrow=diamondThin;endFill=1;endSize=24;html=1;rounded=0;strokeWidth=1;" edge="1" parent="WIyWlLk6GJQsqaUBKTNV-1" source="171" target="177"><mxGeometry width="160" relative="1" as="geometry"><mxPoint x="-674" y="2860" as="sourcePoint"/><mxPoint x="-514" y="2860" as="targetPoint"/><Array as="points"><mxPoint x="-744" y="2730"/></Array></mxGeometry></mxCell><mxCell id="477" value="1...*" style="edgeLabel;html=1;align=center;verticalAlign=middle;resizable=0;points=[];" vertex="1" connectable="0" parent="476"><mxGeometry x="-0.8747" relative="1" as="geometry"><mxPoint x="15" as="offset"/></mxGeometry></mxCell><mxCell id="478" value="&lt;h1&gt;WidgetCreator&lt;/h1&gt;&lt;div&gt;Создаёт виджеты исходя из информации в cover_config&lt;/div&gt;" style="text;html=1;strokeColor=none;fillColor=none;spacing=5;spacingTop=-20;whiteSpace=wrap;overflow=hidden;rounded=0;" vertex="1" parent="WIyWlLk6GJQsqaUBKTNV-1"><mxGeometry x="-807" y="585" width="187" height="92" as="geometry"/></mxCell><mxCell id="479" value="&lt;h1&gt;Utils&lt;/h1&gt;&lt;div&gt;Различные функции, доступные из любой точки проекта&lt;/div&gt;" style="text;html=1;strokeColor=none;fillColor=none;spacing=5;spacingTop=-20;whiteSpace=wrap;overflow=hidden;rounded=0;" vertex="1" parent="WIyWlLk6GJQsqaUBKTNV-1"><mxGeometry x="-1150" y="1100" width="187" height="100" as="geometry"/></mxCell><mxCell id="480" value="&lt;h1&gt;Listener&lt;/h1&gt;&lt;div&gt;Необходим для прослушивания какого-либо ресурса, например, VkLongPoll-сервера, и отправки события всем subcriber&lt;/div&gt;" style="text;html=1;strokeColor=none;fillColor=none;spacing=5;spacingTop=-20;whiteSpace=wrap;overflow=hidden;rounded=0;" vertex="1" parent="WIyWlLk6GJQsqaUBKTNV-1"><mxGeometry x="-1120" y="1972.5" width="210" height="130" as="geometry"/></mxCell><mxCell id="481" value="Coordinates" style="swimlane;fontStyle=1;align=center;verticalAlign=top;childLayout=stackLayout;horizontal=1;startSize=26;horizontalStack=0;resizeParent=1;resizeParentMax=0;resizeLast=0;collapsible=1;marginBottom=0;html=1;" vertex="1" parent="WIyWlLk6GJQsqaUBKTNV-1"><mxGeometry x="350" y="2530" width="160" height="78" as="geometry"/></mxCell><mxCell id="482" value="+ x: int&lt;br&gt;+ y: int" style="text;strokeColor=none;fillColor=none;align=left;verticalAlign=top;spacingLeft=4;spacingRight=4;overflow=hidden;rotatable=0;points=[[0,0.5],[1,0.5]];portConstraint=eastwest;html=1;" vertex="1" parent="481"><mxGeometry y="26" width="160" height="44" as="geometry"/></mxCell><mxCell id="483" value="" style="line;strokeWidth=1;fillColor=none;align=left;verticalAlign=middle;spacingTop=-1;spacingLeft=3;spacingRight=3;rotatable=0;labelPosition=right;points=[];portConstraint=eastwest;html=1;" vertex="1" parent="481"><mxGeometry y="70" width="160" height="8" as="geometry"/></mxCell><mxCell id="485" value="CreateException(Exception)" style="swimlane;fontStyle=1;align=center;verticalAlign=top;childLayout=stackLayout;horizontal=1;startSize=26;horizontalStack=0;resizeParent=1;resizeParentMax=0;resizeLast=0;collapsible=1;marginBottom=0;html=1;" vertex="1" parent="WIyWlLk6GJQsqaUBKTNV-1"><mxGeometry x="280" y="2822" width="180" height="86" as="geometry"/></mxCell><mxCell id="486" value="+ message: str" style="text;strokeColor=none;fillColor=none;align=left;verticalAlign=top;spacingLeft=4;spacingRight=4;overflow=hidden;rotatable=0;points=[[0,0.5],[1,0.5]];portConstraint=eastwest;html=1;" vertex="1" parent="485"><mxGeometry y="26" width="180" height="26" as="geometry"/></mxCell><mxCell id="487" value="" style="line;strokeWidth=1;fillColor=none;align=left;verticalAlign=middle;spacingTop=-1;spacingLeft=3;spacingRight=3;rotatable=0;labelPosition=right;points=[];portConstraint=eastwest;html=1;" vertex="1" parent="485"><mxGeometry y="52" width="180" height="8" as="geometry"/></mxCell><mxCell id="488" value="+ __str__(): str" style="text;strokeColor=none;fillColor=none;align=left;verticalAlign=top;spacingLeft=4;spacingRight=4;overflow=hidden;rotatable=0;points=[[0,0.5],[1,0.5]];portConstraint=eastwest;html=1;" vertex="1" parent="485"><mxGeometry y="60" width="180" height="26" as="geometry"/></mxCell><mxCell id="489" value="CreateTypeException" style="swimlane;fontStyle=1;align=center;verticalAlign=top;childLayout=stackLayout;horizontal=1;startSize=26;horizontalStack=0;resizeParent=1;resizeParentMax=0;resizeLast=0;collapsible=1;marginBottom=0;html=1;" vertex="1" parent="WIyWlLk6GJQsqaUBKTNV-1"><mxGeometry x="-240" y="2740" width="410" height="70" as="geometry"/></mxCell><mxCell id="491" value="" style="line;strokeWidth=1;fillColor=none;align=left;verticalAlign=middle;spacingTop=-1;spacingLeft=3;spacingRight=3;rotatable=0;labelPosition=right;points=[];portConstraint=eastwest;html=1;" vertex="1" parent="489"><mxGeometry y="26" width="410" height="8" as="geometry"/></mxCell><mxCell id="492" value="+ __init__(name_value: str, needed_type: Union[list, any], got_type: any)" style="text;strokeColor=none;fillColor=none;align=left;verticalAlign=top;spacingLeft=4;spacingRight=4;overflow=hidden;rotatable=0;points=[[0,0.5],[1,0.5]];portConstraint=eastwest;html=1;" vertex="1" parent="489"><mxGeometry y="34" width="410" height="36" as="geometry"/></mxCell><mxCell id="501" value="CreateValueException" style="swimlane;fontStyle=1;align=center;verticalAlign=top;childLayout=stackLayout;horizontal=1;startSize=26;horizontalStack=0;resizeParent=1;resizeParentMax=0;resizeLast=0;collapsible=1;marginBottom=0;html=1;" vertex="1" parent="WIyWlLk6GJQsqaUBKTNV-1"><mxGeometry x="-240" y="2830" width="410" height="70" as="geometry"/></mxCell><mxCell id="502" value="" style="line;strokeWidth=1;fillColor=none;align=left;verticalAlign=middle;spacingTop=-1;spacingLeft=3;spacingRight=3;rotatable=0;labelPosition=right;points=[];portConstraint=eastwest;html=1;" vertex="1" parent="501"><mxGeometry y="26" width="410" height="8" as="geometry"/></mxCell><mxCell id="503" value="+ __init__(name_value: str, needed_value: Union[list, any], got_value: any)" style="text;strokeColor=none;fillColor=none;align=left;verticalAlign=top;spacingLeft=4;spacingRight=4;overflow=hidden;rotatable=0;points=[[0,0.5],[1,0.5]];portConstraint=eastwest;html=1;" vertex="1" parent="501"><mxGeometry y="34" width="410" height="36" as="geometry"/></mxCell><mxCell id="504" value="CreateValueException" style="swimlane;fontStyle=1;align=center;verticalAlign=top;childLayout=stackLayout;horizontal=1;startSize=26;horizontalStack=0;resizeParent=1;resizeParentMax=0;resizeLast=0;collapsible=1;marginBottom=0;html=1;" vertex="1" parent="WIyWlLk6GJQsqaUBKTNV-1"><mxGeometry x="-240" y="2920" width="410" height="70" as="geometry"/></mxCell><mxCell id="505" value="" style="line;strokeWidth=1;fillColor=none;align=left;verticalAlign=middle;spacingTop=-1;spacingLeft=3;spacingRight=3;rotatable=0;labelPosition=right;points=[];portConstraint=eastwest;html=1;" vertex="1" parent="504"><mxGeometry y="26" width="410" height="8" as="geometry"/></mxCell><mxCell id="506" value="+ __init__(config_type: str)" style="text;strokeColor=none;fillColor=none;align=left;verticalAlign=top;spacingLeft=4;spacingRight=4;overflow=hidden;rotatable=0;points=[[0,0.5],[1,0.5]];portConstraint=eastwest;html=1;" vertex="1" parent="504"><mxGeometry y="34" width="410" height="36" as="geometry"/></mxCell><mxCell id="508" value="Extends" style="endArrow=block;endSize=16;endFill=0;html=1;rounded=0;strokeWidth=1;" edge="1" parent="WIyWlLk6GJQsqaUBKTNV-1" source="489" target="485"><mxGeometry width="160" relative="1" as="geometry"><mxPoint x="210" y="2770" as="sourcePoint"/><mxPoint x="370" y="2770" as="targetPoint"/></mxGeometry></mxCell><mxCell id="509" value="Extends" style="endArrow=block;endSize=16;endFill=0;html=1;rounded=0;strokeWidth=1;" edge="1" parent="WIyWlLk6GJQsqaUBKTNV-1" source="501" target="485"><mxGeometry width="160" relative="1" as="geometry"><mxPoint x="132.5" y="2820" as="sourcePoint"/><mxPoint x="290" y="2855" as="targetPoint"/></mxGeometry></mxCell><mxCell id="510" value="Extends" style="endArrow=block;endSize=16;endFill=0;html=1;rounded=0;strokeWidth=1;" edge="1" parent="WIyWlLk6GJQsqaUBKTNV-1" source="504" target="485"><mxGeometry width="160" relative="1" as="geometry"><mxPoint x="142.5" y="2830" as="sourcePoint"/><mxPoint x="300" y="2865" as="targetPoint"/></mxGeometry></mxCell><mxCell id="511" value="Interval" style="swimlane;fontStyle=1;align=center;verticalAlign=top;childLayout=stackLayout;horizontal=1;startSize=26;horizontalStack=0;resizeParent=1;resizeParentMax=0;resizeLast=0;collapsible=1;marginBottom=0;html=1;" vertex="1" parent="WIyWlLk6GJQsqaUBKTNV-1"><mxGeometry x="350" y="2630" width="160" height="98" as="geometry"/></mxCell><mxCell id="512" value="- interval: List&lt;br&gt;+ fr: int&lt;br&gt;+ to: int" style="text;strokeColor=none;fillColor=none;align=left;verticalAlign=top;spacingLeft=4;spacingRight=4;overflow=hidden;rotatable=0;points=[[0,0.5],[1,0.5]];portConstraint=eastwest;html=1;" vertex="1" parent="511"><mxGeometry y="26" width="160" height="64" as="geometry"/></mxCell><mxCell id="513" value="" style="line;strokeWidth=1;fillColor=none;align=left;verticalAlign=middle;spacingTop=-1;spacingLeft=3;spacingRight=3;rotatable=0;labelPosition=right;points=[];portConstraint=eastwest;html=1;" vertex="1" parent="511"><mxGeometry y="90" width="160" height="8" as="geometry"/></mxCell><mxCell id="514" value="&amp;lt;&amp;lt;enumeration&amp;gt;&amp;gt;&lt;br&gt;LIMITED_ACTION" style="swimlane;fontStyle=1;align=center;verticalAlign=top;childLayout=stackLayout;horizontal=1;startSize=40;horizontalStack=0;resizeParent=1;resizeParentMax=0;resizeLast=0;collapsible=1;marginBottom=0;html=1;" vertex="1" parent="WIyWlLk6GJQsqaUBKTNV-1"><mxGeometry x="-230" y="2600" width="160" height="112" as="geometry"/></mxCell><mxCell id="515" value="NONE&lt;br&gt;DELETE&lt;br&gt;NEWLINE" style="text;strokeColor=none;fillColor=none;align=left;verticalAlign=top;spacingLeft=4;spacingRight=4;overflow=hidden;rotatable=0;points=[[0,0.5],[1,0.5]];portConstraint=eastwest;html=1;" vertex="1" parent="514"><mxGeometry y="40" width="160" height="64" as="geometry"/></mxCell><mxCell id="516" value="" style="line;strokeWidth=1;fillColor=none;align=left;verticalAlign=middle;spacingTop=-1;spacingLeft=3;spacingRight=3;rotatable=0;labelPosition=right;points=[];portConstraint=eastwest;html=1;" vertex="1" parent="514"><mxGeometry y="104" width="160" height="8" as="geometry"/></mxCell><mxCell id="517" value="" style="endArrow=open;endFill=1;endSize=12;html=1;rounded=0;strokeWidth=1;" edge="1" parent="WIyWlLk6GJQsqaUBKTNV-1" source="96" target="317"><mxGeometry width="160" relative="1" as="geometry"><mxPoint x="1210" y="2660" as="sourcePoint"/><mxPoint x="1370" y="2660" as="targetPoint"/></mxGeometry></mxCell><mxCell id="519" value="create" style="edgeLabel;html=1;align=center;verticalAlign=middle;resizable=0;points=[];" vertex="1" connectable="0" parent="517"><mxGeometry x="-0.4267" relative="1" as="geometry"><mxPoint as="offset"/></mxGeometry></mxCell><mxCell id="520" value="" style="endArrow=open;endFill=1;endSize=12;html=1;rounded=0;strokeWidth=1;" edge="1" parent="WIyWlLk6GJQsqaUBKTNV-1" source="311" target="317"><mxGeometry width="160" relative="1" as="geometry"><mxPoint x="1030" y="2899.9999999999995" as="sourcePoint"/><mxPoint x="1030" y="2950.0000000000005" as="targetPoint"/></mxGeometry></mxCell><mxCell id="521" value="use" style="edgeLabel;html=1;align=center;verticalAlign=middle;resizable=0;points=[];" vertex="1" connectable="0" parent="520"><mxGeometry x="-0.4267" relative="1" as="geometry"><mxPoint x="-11" y="-11" as="offset"/></mxGeometry></mxCell><mxCell id="522" value="&amp;lt;&amp;lt;enumeration&amp;gt;&amp;gt;&lt;br&gt;SPACED_TYPES" style="swimlane;fontStyle=1;align=center;verticalAlign=top;childLayout=stackLayout;horizontal=1;startSize=40;horizontalStack=0;resizeParent=1;resizeParentMax=0;resizeLast=0;collapsible=1;marginBottom=0;html=1;" vertex="1" parent="WIyWlLk6GJQsqaUBKTNV-1"><mxGeometry x="-42" y="2600" width="160" height="112" as="geometry"/></mxCell><mxCell id="523" value="PRE_FORM&lt;br&gt;POST_FORM" style="text;strokeColor=none;fillColor=none;align=left;verticalAlign=top;spacingLeft=4;spacingRight=4;overflow=hidden;rotatable=0;points=[[0,0.5],[1,0.5]];portConstraint=eastwest;html=1;" vertex="1" parent="522"><mxGeometry y="40" width="160" height="64" as="geometry"/></mxCell><mxCell id="524" value="" style="line;strokeWidth=1;fillColor=none;align=left;verticalAlign=middle;spacingTop=-1;spacingLeft=3;spacingRight=3;rotatable=0;labelPosition=right;points=[];portConstraint=eastwest;html=1;" vertex="1" parent="522"><mxGeometry y="104" width="160" height="8" as="geometry"/></mxCell><mxCell id="525" value="&amp;lt;&amp;lt;enumeration&amp;gt;&amp;gt;&lt;br&gt;SPACED_TYPES" style="swimlane;fontStyle=1;align=center;verticalAlign=top;childLayout=stackLayout;horizontal=1;startSize=40;horizontalStack=0;resizeParent=1;resizeParentMax=0;resizeLast=0;collapsible=1;marginBottom=0;html=1;" vertex="1" parent="WIyWlLk6GJQsqaUBKTNV-1"><mxGeometry x="150" y="2520" width="160" height="188" as="geometry"/></mxCell><mxCell id="526" value="ADD_LIKED_POST&lt;br&gt;ADD_LOKED_COMMENT&lt;br&gt;ADD_COMMENTED_POST&lt;br&gt;ADD_COMMENTED_COMMENT&lt;br&gt;ADD_REPOSTED_POST&lt;br&gt;ADD_RELEASED_POST&lt;br&gt;ADD_DONATE&lt;br&gt;DEL_LIKED_POST&lt;br&gt;DEL_LIKED_COMMENT" style="text;strokeColor=none;fillColor=none;align=left;verticalAlign=top;spacingLeft=4;spacingRight=4;overflow=hidden;rotatable=0;points=[[0,0.5],[1,0.5]];portConstraint=eastwest;html=1;" vertex="1" parent="525"><mxGeometry y="40" width="160" height="140" as="geometry"/></mxCell><mxCell id="527" value="" style="line;strokeWidth=1;fillColor=none;align=left;verticalAlign=middle;spacingTop=-1;spacingLeft=3;spacingRight=3;rotatable=0;labelPosition=right;points=[];portConstraint=eastwest;html=1;" vertex="1" parent="525"><mxGeometry y="180" width="160" height="8" as="geometry"/></mxCell><mxCell id="529" value="&lt;h1&gt;Types&lt;/h1&gt;&lt;div&gt;Различные структурки&lt;/div&gt;" style="text;html=1;strokeColor=none;fillColor=none;spacing=5;spacingTop=-20;whiteSpace=wrap;overflow=hidden;rounded=0;" vertex="1" parent="WIyWlLk6GJQsqaUBKTNV-1"><mxGeometry x="-240" y="2490" width="140" height="80" as="geometry"/></mxCell><mxCell id="530" value="" style="endArrow=open;endFill=1;endSize=12;html=1;rounded=0;strokeWidth=1;" edge="1" parent="WIyWlLk6GJQsqaUBKTNV-1" source="469" target="528"><mxGeometry width="160" relative="1" as="geometry"><mxPoint x="-381.36771300448436" y="2300" as="sourcePoint"/><mxPoint x="-742.3542600896862" y="2550" as="targetPoint"/></mxGeometry></mxCell><mxCell id="531" value="use" style="edgeLabel;html=1;align=center;verticalAlign=middle;resizable=0;points=[];" vertex="1" connectable="0" parent="530"><mxGeometry x="-0.1621" y="-1" relative="1" as="geometry"><mxPoint x="7" y="-11" as="offset"/></mxGeometry></mxCell><mxCell id="532" value="" style="endArrow=open;endFill=1;endSize=12;html=1;rounded=0;strokeWidth=1;" edge="1" parent="WIyWlLk6GJQsqaUBKTNV-1" source="422" target="528"><mxGeometry width="160" relative="1" as="geometry"><mxPoint x="-600" y="2791.666666666667" as="sourcePoint"/><mxPoint x="-280" y="2777.444444444445" as="targetPoint"/></mxGeometry></mxCell><mxCell id="533" value="use" style="edgeLabel;html=1;align=center;verticalAlign=middle;resizable=0;points=[];" vertex="1" connectable="0" parent="532"><mxGeometry x="-0.1621" y="-1" relative="1" as="geometry"><mxPoint x="7" y="-11" as="offset"/></mxGeometry></mxCell></root></mxGraphModel></diagram></mxfile>